<?xml version="1.0" standalone="no"?>
<!DOCTYPE svg PUBLIC "-//W3C//DTD SVG 20010904//EN"
 "http://www.w3.org/TR/2001/REC-SVG-20010904/DTD/svg10.dtd">
<svg width="300" height="300" version="1.0" xmlns="http://www.w3.org/2000/svg"
 viewBox="0 0 1024.000000 1024.000000"
 preserveAspectRatio="xMidYMid meet">

<g transform="translate(0.000000,1024.000000) scale(0.100000,-0.100000)"
fill="#000000" stroke="none">
<path d="M5456 9129 c-25 -13 -78 -25 -155 -34 -64 -8 -154 -19 -201 -26 -185
-24 -544 10 -670 65 -9 4 -45 -13 -93 -43 -43 -27 -92 -55 -110 -61 -238 -91
-518 -217 -645 -288 -48 -27 -136 -75 -197 -107 -60 -32 -153 -86 -205 -120
-52 -34 -133 -86 -180 -115 -47 -30 -135 -91 -197 -135 -62 -44 -135 -96 -163
-115 -175 -121 -258 -192 -266 -227 -4 -15 -33 -42 -78 -72 -40 -27 -106 -81
-147 -119 -42 -39 -116 -102 -165 -139 -49 -37 -111 -91 -139 -120 -27 -28
-79 -75 -115 -103 -83 -65 -271 -233 -419 -375 -64 -60 -148 -137 -186 -170
-39 -32 -111 -98 -160 -145 -50 -47 -135 -124 -190 -172 -150 -130 -150 -130
-185 -171 l-32 -37 39 -53 c22 -28 71 -95 110 -147 149 -199 327 -423 410
-517 15 -17 39 -46 53 -64 39 -50 186 -222 285 -333 50 -56 126 -141 169 -191
44 -49 83 -91 87 -93 5 -2 31 -33 59 -68 28 -36 57 -67 65 -70 8 -3 101 46
208 109 108 64 209 123 225 131 l30 15 5 -32 c3 -18 6 -219 6 -447 1 -228 3
-518 6 -645 2 -126 7 -576 10 -1000 5 -722 13 -1246 20 -1253 3 -3 4619 -2
5267 1 l357 2 3 300 c2 165 4 928 6 1695 2 767 6 1397 8 1399 3 3 98 -58 212
-135 205 -139 207 -141 233 -125 64 40 193 170 325 328 79 94 169 200 202 235
32 34 90 102 128 149 65 81 145 176 279 335 122 145 350 442 367 480 10 22
-12 49 -112 130 -19 16 -95 83 -169 149 -73 66 -155 138 -181 160 -149 124
-245 208 -325 284 -50 47 -137 125 -195 173 -58 47 -134 110 -168 140 -229
192 -611 499 -653 522 -48 28 -88 64 -121 108 -41 53 -470 350 -723 499 -226
133 -596 317 -755 375 -80 29 -219 80 -310 114 -91 34 -194 70 -230 80 -76 22
-241 87 -254 101 -15 14 -38 11 -80 -12z m-1046 -18 c0 -6 -4 -13 -10 -16 -5
-3 -10 1 -10 9 0 9 5 16 10 16 6 0 10 -4 10 -9z m396 -443 c-11 -201 -11 -199
9 -192 8 4 15 1 15 -5 0 -13 37 -15 42 -3 2 5 57 19 123 31 66 12 130 25 143
28 21 5 22 3 22 -66 0 -68 -1 -72 -26 -81 -28 -11 -126 -13 -161 -4 -15 4 -23
14 -22 28 0 20 1 20 9 1 8 -19 9 -19 9 3 1 13 -5 22 -14 22 -8 0 -15 -9 -15
-20 0 -26 -17 -26 -25 1 -6 19 -8 19 -19 3 -9 -12 -19 -15 -32 -9 -10 4 -23 9
-29 11 -5 1 -27 9 -47 18 -46 20 -47 31 -17 196 23 129 26 140 35 140 3 0 4
-46 0 -102z m164 -1039 c0 -8 4 -8 14 0 8 7 30 11 48 9 l33 -3 3 -137 3 -138
-75 0 -76 0 0 133 c0 74 3 137 7 140 11 11 43 8 43 -4z m-1027 -171 c3 -73 3
-136 0 -140 -8 -14 -153 -9 -158 5 -6 19 -13 205 -8 232 5 25 20 29 119 33
l41 2 6 -132z m2610 30 c20 -10 57 -66 57 -85 0 -6 -26 -14 -61 -18 -51 -6
-62 -4 -73 11 -25 33 -105 15 -92 -21 2 -6 -25 -11 -65 -11 -76 -2 -80 1 -55
59 7 18 26 41 42 51 49 33 197 41 247 14z m-851 -20 c30 -11 68 -64 68 -94 0
-17 -8 -19 -67 -19 -52 0 -72 4 -86 18 -21 21 -74 15 -92 -10 -13 -18 -140
-29 -150 -13 -9 15 26 81 55 102 44 32 205 42 272 16z m435 2 c32 -19 70 -76
59 -88 -4 -3 -33 -8 -67 -10 -46 -3 -64 -1 -78 12 -27 25 -86 18 -85 -9 0 -18
-6 -20 -68 -20 -67 0 -68 1 -68 26 0 34 34 78 74 95 18 7 68 13 116 14 67 0
92 -4 117 -20z m-1320 -16 c27 -21 69 -81 61 -89 -6 -6 -150 -6 -186 1 -18 4
-38 2 -45 -4 -6 -5 -49 -12 -95 -16 l-84 -7 8 23 c16 52 56 91 113 109 14 4
65 7 113 6 70 -2 92 -6 115 -23z m526 6 c5 -4 -21 -34 -57 -66 -36 -33 -66
-62 -66 -67 0 -4 11 -24 24 -45 27 -43 116 -216 116 -226 0 -3 -36 -6 -81 -6
l-80 0 -35 74 c-19 41 -34 79 -34 85 0 19 -18 12 -40 -16 -14 -18 -21 -40 -20
-63 4 -73 6 -70 -69 -70 -83 0 -81 -3 -80 155 1 61 4 97 8 80 6 -28 10 -30 51
-31 25 0 53 4 62 8 10 5 19 4 23 -2 4 -6 16 -8 27 -4 11 3 18 2 15 -3 -6 -10
119 -11 128 -1 4 3 -1 18 -10 32 -10 14 -15 32 -12 41 6 15 -19 22 -96 27
l-37 3 45 57 45 57 82 -6 c46 -3 87 -9 91 -13z m-986 -26 c15 -11 33 -36 39
-55 l12 -34 -71 -3 c-40 -2 -75 2 -81 8 -16 16 -74 12 -94 -7 -12 -13 -37 -19
-85 -21 -63 -4 -67 -3 -67 18 0 26 34 76 61 91 35 18 102 28 181 26 60 -2 83
-7 105 -23z m1973 -159 c5 3 10 1 10 -6 0 -7 10 -9 27 -6 15 3 37 1 50 -4 13
-5 23 -5 23 -1 0 10 116 10 125 0 4 -4 16 -3 27 3 19 10 19 11 -4 36 l-23 26
23 -12 c13 -7 33 -33 43 -57 57 -129 -76 -223 -260 -183 -37 8 -58 20 -81 45
-49 56 -42 70 37 79 60 6 68 5 82 -13 33 -42 111 -36 111 9 0 23 -20 31 -117
48 -74 13 -114 35 -135 74 -7 14 0 10 20 -11 17 -19 36 -31 42 -27z m-405 -13
c13 3 22 1 19 -3 -5 -8 66 -3 100 7 13 4 16 2 11 -6 -6 -9 -3 -9 13 -1 27 14
35 14 26 -1 -5 -7 -3 -8 7 -3 7 5 26 8 42 7 43 -4 53 8 26 30 -22 17 -22 18
-2 9 44 -22 65 -62 60 -114 -8 -89 -71 -131 -192 -131 -97 1 -146 16 -180 55
-42 50 -34 66 33 74 31 4 62 7 67 8 6 1 22 -11 37 -26 32 -32 57 -34 89 -8 22
18 23 21 7 37 -9 9 -38 20 -65 24 -88 14 -135 31 -159 57 -35 38 -29 47 6 11
22 -22 37 -29 55 -26z m-358 42 c-3 -3 -12 -4 -19 -1 -8 3 -5 6 6 6 11 1 17
-2 13 -5z m217 -94 c2 -52 7 -107 11 -122 l7 -28 -61 0 c-34 0 -64 -1 -68 -2
-5 -2 -12 6 -17 18 l-9 21 -34 -23 c-74 -50 -187 -40 -223 19 -23 36 -26 100
-7 136 14 28 66 57 117 65 26 4 21 1 -20 -14 -53 -20 -85 -40 -64 -40 6 0 14
3 18 8 4 4 40 8 79 9 40 1 84 4 100 6 15 2 30 1 32 -3 6 -9 87 -6 103 4 8 5
10 1 5 -10 -4 -12 -3 -15 5 -10 7 4 12 21 12 38 0 68 10 17 14 -72z m-1359
-152 c6 -16 0 -18 -64 -18 -66 0 -71 2 -77 24 l-6 24 -23 -23 c-28 -25 -87
-45 -134 -45 -37 0 -78 19 -105 49 -25 28 -27 98 -3 135 18 27 87 66 117 65 8
0 -9 -9 -39 -21 -39 -15 -50 -23 -40 -29 8 -5 28 -6 44 -3 17 4 44 6 62 6 18
-1 50 5 72 13 22 8 42 11 45 7 2 -4 31 -7 63 -7 l58 1 5 34 c2 19 7 -17 11
-80 3 -63 9 -123 14 -132z m108 185 c52 -1 57 1 58 20 0 12 6 0 12 -27 21 -88
97 -113 135 -46 16 27 21 30 72 30 75 0 87 -9 70 -52 -40 -101 -162 -151 -285
-117 -87 24 -136 91 -134 184 1 39 4 51 8 35 5 -23 11 -26 64 -27z m-740 -13
c-7 -26 16 -57 28 -38 7 10 9 10 9 0 0 -9 5 -9 23 2 23 16 24 16 57 16 11 0
20 6 20 14 0 8 5 18 11 22 8 4 9 -3 6 -22 -3 -16 -9 -49 -13 -73 -8 -56 -70
-126 -123 -141 -48 -12 -145 2 -179 26 -30 22 -68 91 -78 141 l-6 31 58 12
c87 17 88 17 92 -5 16 -97 82 -103 82 -8 0 24 4 43 9 43 5 0 7 -9 4 -20z
m1169 -359 c-1 -7 2 -10 8 -6 6 3 8 11 5 16 -10 15 23 10 39 -7 9 -8 21 -12
28 -8 10 6 9 3 0 -9 -18 -22 -5 -40 24 -33 16 4 30 0 44 -14 11 -11 45 -28 75
-37 30 -10 55 -23 55 -30 0 -7 4 -13 10 -13 5 0 7 -13 4 -29 -3 -16 -1 -37 4
-48 9 -16 7 -22 -9 -34 -24 -16 -51 -65 -55 -96 -1 -12 -12 -31 -23 -42 -12
-12 -21 -29 -21 -38 0 -10 -7 -27 -15 -37 -11 -14 -12 -23 -4 -32 16 -20 1
-37 -17 -20 -12 13 -11 21 6 60 l19 46 -22 15 c-33 23 -101 19 -133 -8 -34
-30 -25 -56 12 -33 41 27 100 17 68 -11 -8 -8 -15 -9 -19 -3 -4 6 -16 5 -33
-1 -15 -6 -29 -10 -32 -9 -3 1 -10 -17 -17 -39 -6 -23 -8 -41 -4 -41 5 0 11
-10 14 -21 5 -18 11 -20 32 -15 17 4 24 3 20 -4 -3 -5 -13 -10 -21 -10 -17 0
-18 -14 -4 -41 8 -14 7 -19 -3 -19 -8 0 -19 11 -25 25 -23 49 -135 76 -179 42
l-26 -21 -21 26 c-28 34 -54 47 -102 49 -52 3 -84 -8 -84 -29 0 -10 -9 -23
-20 -30 -21 -13 -27 -47 -10 -57 6 -3 10 4 10 18 0 27 14 41 48 50 29 7 83
-19 76 -37 -3 -8 5 -22 18 -31 15 -11 19 -19 11 -22 -7 -3 -13 -9 -13 -14 0
-6 5 -7 10 -4 12 7 13 -15 2 -31 -12 -18 -40 -24 -46 -9 -4 11 -11 10 -40 -3
-19 -10 -35 -21 -36 -25 0 -5 4 -6 9 -3 5 3 11 -8 15 -24 6 -34 42 -55 64 -38
6 6 12 6 12 2 0 -5 -9 -15 -21 -22 -14 -9 -19 -20 -16 -33 5 -19 1 -20 -83
-16 -77 3 -93 7 -123 30 -68 51 -149 23 -167 -58 -15 -65 -13 -77 13 -70 20 6
21 5 5 -8 -10 -8 -18 -20 -18 -26 0 -11 38 -70 52 -81 13 -10 21 -60 9 -60 -6
0 -11 5 -11 10 0 6 -5 10 -11 10 -6 0 -8 -7 -5 -15 4 -10 -3 -19 -19 -25 -27
-10 -45 -38 -45 -70 0 -16 -4 -20 -16 -16 -12 5 -14 1 -9 -17 7 -22 7 -22 -10
-2 -11 14 -18 16 -21 8 -3 -7 -12 -13 -20 -13 -8 0 -19 -12 -25 -27 -9 -23 -7
-30 9 -43 79 -62 78 -60 62 -70 -9 -6 -10 -10 -3 -10 9 0 9 -8 2 -30 -6 -16
-9 -35 -6 -42 3 -12 -102 -68 -252 -134 -41 -18 -58 -41 -22 -29 13 4 20 0 24
-15 5 -19 8 -20 28 -10 19 11 21 10 16 -5 -5 -11 -3 -15 5 -12 7 2 12 10 10
16 -1 6 5 14 13 17 10 4 13 14 9 29 -9 35 6 53 24 29 13 -18 14 -18 7 4 -9 32
22 29 37 -4 11 -23 10 -28 -7 -41 -11 -7 -20 -17 -20 -21 0 -3 -31 -21 -69
-40 -64 -30 -86 -54 -34 -36 13 4 26 7 31 6 4 -1 7 3 7 9 0 5 4 8 9 5 5 -4 11
-2 13 3 1 5 10 11 18 13 8 2 18 7 21 12 24 32 52 -60 43 -137 -6 -48 -4 -57
16 -77 16 -16 23 -37 26 -74 l4 -51 -20 40 c-11 22 -17 31 -14 20 18 -58 18
-58 -8 -53 -20 4 -24 1 -21 -13 3 -11 11 -16 21 -13 10 3 5 -2 -10 -11 -34
-19 -36 -27 -4 -19 13 3 27 1 30 -5 4 -6 2 -11 -5 -11 -7 0 -4 -7 7 -16 10 -8
13 -13 7 -9 -8 4 -11 1 -7 -9 3 -8 12 -17 20 -20 8 -3 14 -11 14 -18 0 -9 -3
-8 -10 2 -20 31 -9 -10 21 -78 l32 -72 -24 -20 c-22 -20 -22 -20 -2 -11 30 15
30 15 42 -19 7 -22 7 -38 -1 -55 -13 -28 -4 -45 14 -27 9 9 15 9 27 -1 14 -10
14 -10 3 5 -8 9 -11 22 -7 28 4 6 0 19 -9 28 -9 11 -13 27 -9 41 4 17 8 19 14
9 13 -19 11 -30 -3 -23 -7 4 -5 0 5 -9 11 -8 25 -12 33 -9 11 4 12 0 5 -18
-10 -28 5 -69 26 -69 10 0 11 -5 4 -18 -6 -11 -6 -24 0 -33 5 -7 9 -20 9 -28
0 -11 -4 -11 -18 2 -26 23 -29 21 -24 -13 4 -31 20 -38 39 -19 7 7 13 7 17 1
6 -10 -79 -38 -105 -34 -9 2 -19 -4 -22 -13 -4 -8 -15 -15 -25 -15 -10 0 -27
-9 -37 -20 -10 -11 -22 -17 -27 -13 -6 3 -14 -1 -19 -8 -6 -10 -9 -6 -9 14 0
15 -4 27 -10 27 -5 0 -10 7 -10 15 0 9 -7 18 -17 22 -14 5 -13 8 5 14 22 8 30
33 13 43 -18 12 -41 -20 -44 -61 -1 -23 -6 -45 -10 -49 -4 -4 -7 -18 -7 -30 0
-18 4 -22 18 -18 16 5 16 5 0 -9 -10 -8 -18 -17 -18 -21 0 -8 61 3 75 13 5 5
48 21 95 36 47 16 91 32 97 38 29 22 49 -11 56 -92 2 -20 -4 -26 -31 -33 -18
-5 -30 -13 -27 -17 8 -14 -18 -29 -47 -26 -20 3 -25 0 -21 -11 6 -17 -1 -18
-29 -3 -18 9 -19 8 -13 -10 5 -17 3 -20 -11 -14 -12 4 -15 3 -10 -5 7 -11 -11
-17 -41 -13 -7 1 -13 -3 -13 -9 0 -6 -8 -10 -17 -9 -10 1 -31 -3 -48 -10 -50
-19 -56 -21 -52 -13 2 4 -4 15 -15 24 -10 10 -18 14 -18 9 0 -6 5 -13 10 -16
15 -9 -9 -37 -27 -31 -7 3 -13 1 -13 -4 0 -6 -4 -10 -9 -10 -5 0 -8 8 -7 18 1
12 -5 16 -19 14 -11 -2 -25 -4 -31 -4 -13 -1 -12 -23 1 -35 4 -4 5 -3 2 4 -5
7 0 9 14 6 19 -5 19 -7 5 -15 -10 -5 -24 -7 -33 -4 -8 4 -22 1 -29 -5 -11 -9
-14 -8 -14 5 0 10 5 14 10 11 6 -3 10 -1 10 4 0 6 -4 11 -9 11 -5 0 -12 8 -14
18 -3 11 -5 7 -6 -10 -1 -20 -6 -26 -20 -25 -11 0 -18 4 -16 7 2 4 -1 24 -7
44 -10 31 -9 39 3 47 8 5 21 6 29 3 8 -3 41 8 75 24 33 16 81 39 108 50 26 12
47 27 47 34 0 9 -3 8 -10 -2 -6 -9 -10 -10 -10 -3 0 6 5 15 10 18 17 11 0 26
-22 19 -12 -4 -24 -1 -30 7 -8 11 -9 10 -4 -3 4 -13 -8 -22 -52 -39 -31 -12
-65 -21 -74 -21 -10 0 -18 -3 -18 -9 0 -5 -7 -9 -15 -9 -8 0 -15 -4 -15 -10 0
-21 -31 -9 -42 16 -10 21 -10 28 3 38 8 6 15 22 17 36 1 14 4 43 7 65 9 76 10
123 3 118 -5 -2 -8 0 -8 6 0 5 -2 16 -5 23 -4 9 2 14 15 15 11 1 20 -2 20 -7
0 -4 9 -6 21 -3 16 4 17 8 7 14 -10 7 -11 9 0 9 7 0 11 4 8 9 -8 12 5 71 15
71 5 0 5 -7 2 -17 -4 -11 -3 -14 5 -9 7 4 12 3 12 -3 0 -5 -6 -14 -14 -18 -12
-7 -12 -10 0 -21 11 -10 14 -10 14 0 0 9 3 9 10 -2 5 -8 12 -11 16 -7 4 4 2
13 -4 19 -15 15 -16 82 -2 73 6 -4 6 4 0 21 -6 15 -8 34 -6 41 3 8 1 11 -4 8
-6 -3 -10 5 -10 19 0 13 -3 33 -6 43 -5 17 -5 17 6 1 12 -20 30 -24 30 -7 0 5
-4 7 -10 4 -14 -9 -12 18 3 34 10 12 8 13 -8 6 -36 -13 -47 -10 -56 15 -8 22
-8 23 5 8 13 -18 37 -25 35 -10 -3 19 2 23 16 12 13 -11 14 -10 9 4 -3 9 -1
16 5 16 12 0 11 22 -3 31 -4 4 -11 28 -14 54 -4 37 -7 44 -14 30 -6 -9 -7 -28
-3 -43 6 -25 5 -26 -8 -7 -7 11 -14 33 -15 49 -1 17 -8 33 -15 38 -9 6 -8 8 4
8 9 0 19 9 22 20 3 11 1 20 -3 20 -5 0 -11 9 -15 19 -8 26 -33 34 -51 17 -19
-19 -18 -26 4 -26 16 -1 16 -1 -1 -11 -9 -6 -15 -14 -13 -18 3 -4 -3 -7 -13
-8 -10 -1 -18 5 -18 13 0 8 4 14 9 14 5 0 6 5 3 10 -4 6 -1 18 7 27 11 15 11
16 -4 10 -12 -4 -18 -1 -18 9 0 8 -4 13 -8 10 -4 -2 -9 4 -9 15 -1 14 5 19 23
19 13 0 25 5 25 10 3 25 19 61 34 80 20 23 22 54 5 67 -8 6 -15 26 -15 45 0
27 -4 33 -22 34 -16 1 -23 -4 -23 -17 0 -11 5 -19 11 -19 5 0 7 5 4 10 -3 6
-2 10 4 10 16 0 24 -21 12 -33 -7 -7 -7 -14 0 -24 12 -13 2 -18 -28 -14 -7 1
-13 -4 -13 -11 0 -8 -9 -31 -20 -53 -11 -22 -20 -35 -20 -30 0 6 -5 3 -10 -5
-7 -10 -8 0 -5 33 3 32 0 56 -10 70 -7 12 -17 40 -21 61 -6 34 -5 38 9 33 23
-9 61 46 53 78 -3 13 -1 27 5 30 6 4 7 14 4 24 -4 9 -9 36 -12 61 -2 25 -5 58
-7 74 -2 17 -8 32 -14 34 -7 2 -12 8 -12 13 0 6 7 6 18 1 21 -12 42 -5 42 14
0 13 -24 19 -57 15 -6 -1 -14 3 -18 9 -3 6 0 7 10 4 11 -4 14 -2 9 9 -3 8 -1
18 4 21 5 3 9 -2 8 -12 -1 -12 6 -17 22 -16 12 0 22 -3 22 -7 0 -4 8 -6 18 -4
9 2 26 4 36 4 11 1 16 4 12 8 -11 11 -36 12 -36 2 0 -6 -5 -7 -11 -4 -6 4 -8
12 -6 19 18 48 18 56 1 49 -13 -5 -16 -3 -11 10 4 11 2 14 -7 11 -8 -3 -16 4
-19 15 -4 16 1 23 18 27 13 3 28 3 34 0 5 -4 12 3 16 14 3 11 13 20 20 20 8 0
12 -6 9 -14 -3 -8 -1 -17 5 -21 6 -3 11 1 11 10 0 8 10 20 23 25 19 8 20 9 3
9 -11 1 -17 4 -13 7 11 11 97 8 109 -4 8 -8 15 -7 28 1 23 14 50 -6 50 -37 0
-12 5 -27 12 -34 11 -11 16 -26 20 -64 2 -16 11 -20 34 -17 4 0 11 -5 15 -13
7 -10 9 -9 9 3 0 9 8 23 18 30 15 13 16 12 3 -3 -17 -22 -9 -23 29 -3 16 8 31
11 34 6 4 -5 0 -12 -6 -14 -7 -3 -3 -6 9 -6 35 -1 39 20 9 46 -15 13 -24 27
-21 33 3 5 -3 15 -15 22 -25 16 -27 48 -1 48 20 0 34 14 44 43 4 11 3 16 -3
12 -6 -4 -6 4 1 22 8 22 7 30 -5 39 -9 6 -16 18 -16 27 0 8 -18 22 -40 31 -22
9 -41 20 -41 26 -1 5 -3 27 -5 48 -4 58 -11 84 -32 127 -12 24 -16 42 -10 46
5 4 3 9 -6 12 -9 4 -16 11 -16 17 0 6 4 9 9 5 6 -3 15 4 21 15 6 12 7 20 1 20
-13 0 -3 66 17 108 10 23 12 36 4 44 -6 6 -8 17 -5 24 3 8 0 14 -7 14 -7 0
-10 -8 -7 -20 6 -22 -18 -29 -26 -7 -3 6 -3 -2 0 -19 4 -27 1 -33 -25 -45 -22
-9 -28 -18 -24 -32 3 -14 1 -18 -6 -13 -7 4 -12 2 -12 -4 0 -6 -12 -10 -27 -9
-16 1 -38 -1 -49 -5 -22 -7 -24 -16 -50 -160 -2 -10 0 -15 4 -12 4 4 8 12 8
17 1 5 3 12 4 17 1 4 3 15 4 24 0 10 5 17 11 15 5 -1 8 -9 6 -17 -2 -8 -4 -22
-5 -30 0 -8 -7 -21 -14 -28 -7 -8 -9 -19 -5 -25 3 -7 3 -9 -2 -5 -4 4 -14 3
-22 -3 -16 -14 -95 -30 -88 -18 3 4 0 20 -5 35 -11 28 1 56 17 40 4 -4 1 -11
-7 -16 -12 -8 -12 -10 -1 -10 7 0 11 -6 8 -15 -4 -8 -2 -17 3 -20 6 -4 10 8
10 25 0 17 4 29 9 25 5 -3 12 -1 16 5 4 6 10 8 15 5 14 -9 20 5 36 83 3 17 1
21 -7 16 -8 -5 -10 -2 -6 9 3 9 0 18 -9 21 -8 3 -14 12 -14 20 0 23 -17 28
-34 10 -15 -14 -16 -14 -16 3 0 11 5 24 12 31 13 13 19 72 7 72 -4 0 -10 -6
-12 -12 -4 -10 -6 -10 -6 -1 -1 15 40 55 48 47 3 -3 -1 -9 -8 -13 -10 -6 -10
-13 -2 -28 5 -11 7 -24 3 -28 -4 -5 -2 -5 5 -2 6 4 9 15 7 25 -5 17 28 62 45
62 5 0 14 -7 21 -15 7 -8 17 -15 23 -15 5 0 1 8 -10 18 -11 9 -18 22 -16 28 2
6 -8 16 -22 22 -14 6 -25 16 -25 22 0 6 5 8 12 4 8 -5 9 -2 5 9 -4 10 -1 17 6
18 9 0 9 2 0 5 -7 3 -9 12 -6 20 5 13 7 13 14 2 6 -9 9 -7 9 9 0 12 -4 25 -10
28 -21 13 -9 25 24 25 19 0 45 -9 60 -21 14 -11 24 -14 21 -7 -4 9 21 22 82
42 49 17 108 38 132 48 40 17 43 21 38 48 -6 28 -5 29 25 23 36 -7 59 15 51
47 -10 36 24 32 111 -15 47 -26 88 -51 92 -56 10 -16 43 -9 54 12 9 15 18 19
34 15 13 -3 31 1 42 9 10 8 28 15 38 15 11 0 32 12 48 27 20 19 31 23 40 16
12 -10 112 -23 103 -14 -9 8 17 42 29 38 7 -3 18 -2 25 2 18 11 56 5 53 -8z
m1120 -70 c36 -32 36 -36 -6 -47 -22 -5 -27 -4 -21 6 5 8 4 11 -3 6 -6 -4 -8
-14 -5 -23 5 -12 3 -14 -8 -8 -11 7 -12 6 -2 -7 7 -8 11 -30 9 -47 -2 -21 1
-34 10 -38 8 -3 14 -10 14 -17 0 -17 35 -35 51 -26 8 5 19 4 27 -2 9 -8 16 -8
24 0 6 6 17 8 24 5 9 -3 14 1 14 12 0 9 -4 14 -9 11 -5 -3 -11 1 -15 9 -3 8 0
15 7 15 9 0 9 2 -1 9 -10 6 -10 10 2 20 13 11 19 8 40 -15 13 -16 24 -33 24
-37 0 -4 7 -18 14 -30 15 -23 17 -75 4 -95 -10 -17 2 -32 24 -32 23 0 124 -96
110 -105 -19 -12 -10 -35 14 -35 13 0 26 -4 28 -9 2 -5 12 -11 23 -13 24 -4
36 -28 23 -45 -11 -13 28 -59 55 -64 10 -2 18 -8 19 -14 1 -33 58 -72 58 -39
0 8 -6 11 -15 8 -11 -5 -15 1 -15 19 0 13 -6 30 -14 36 -8 7 -17 23 -21 38 -3
14 -13 32 -21 40 -8 9 -12 18 -9 22 4 3 12 -2 19 -11 7 -10 15 -15 18 -12 4 3
9 1 13 -5 3 -6 1 -11 -4 -11 -6 0 -11 -4 -11 -10 0 -5 6 -10 13 -10 7 0 23
-17 35 -39 25 -44 58 -56 98 -35 53 28 93 -5 60 -49 -8 -10 -12 -26 -9 -36 3
-11 0 -28 -6 -39 -8 -15 -5 -39 11 -98 24 -88 23 -84 14 -209 -27 -380 -27
-405 -16 -496 l11 -93 -28 -22 c-15 -13 -35 -21 -44 -18 -14 4 -16 -2 -12 -41
5 -40 3 -45 -15 -45 -11 0 -22 6 -25 14 -7 17 -41 11 -78 -15 -14 -10 -29 -15
-33 -11 -4 4 -13 7 -19 7 -19 0 -13 131 8 200 12 40 18 91 18 155 0 183 -5
285 -15 305 -17 34 -90 94 -107 88 -14 -4 -14 -3 -1 6 9 7 11 11 3 11 -7 0
-17 -8 -23 -17 -8 -13 -13 -14 -16 -5 -3 6 -19 12 -35 12 -16 0 -29 5 -29 10
0 6 26 10 62 9 54 -2 66 -5 90 -30 l28 -28 26 51 c22 44 25 61 22 117 -4 72
-36 136 -73 147 -11 4 -28 13 -37 22 -15 13 -18 13 -18 1 0 -11 -9 -14 -35
-11 -20 2 -49 -1 -65 -8 -30 -13 -70 -65 -70 -92 0 -9 -7 -21 -15 -28 -13 -11
-13 -15 -3 -21 7 -5 9 -9 3 -9 -5 0 -10 -10 -11 -22 0 -13 -2 -36 -5 -52 -3
-24 0 -30 16 -31 32 -3 65 -16 65 -25 0 -5 16 -12 35 -16 27 -5 33 -9 25 -19
-8 -10 -19 -10 -53 2 -23 8 -53 17 -67 19 -14 3 -38 14 -54 26 -20 14 -30 17
-35 9 -4 -6 -15 -9 -24 -5 -13 4 -17 1 -17 -15 0 -26 -11 -27 -39 -2 -15 13
-33 19 -52 16 -18 -2 -28 1 -26 8 1 7 -11 14 -28 15 -29 4 -65 31 -65 51 0 14
33 23 40 11 5 -8 9 -6 13 5 4 9 3 13 -3 10 -15 -10 -12 6 4 19 17 13 31 102
17 110 -5 3 -7 15 -4 26 3 12 0 20 -7 20 -7 0 -9 8 -5 19 3 12 0 21 -9 24 -11
4 -13 1 -9 -11 6 -15 5 -15 -10 -3 -9 7 -17 10 -17 6 0 -4 -7 -1 -17 6 -9 8
-24 13 -35 11 -10 -2 -18 1 -18 7 0 17 34 18 54 2 11 -9 16 -11 13 -5 -4 7 1
15 10 19 21 7 57 -31 49 -52 -3 -7 0 -13 6 -13 17 0 0 61 -24 87 -20 21 -30
23 -90 21 -65 -3 -68 -4 -68 -28 0 -18 -3 -21 -9 -11 -6 9 -11 10 -15 2 -4 -6
1 -14 10 -18 21 -8 63 -53 64 -68 0 -6 -23 -9 -56 -8 -46 3 -55 0 -51 -12 10
-24 -53 -6 -93 26 -25 21 -36 25 -42 16 -11 -17 -10 -25 5 -24 35 1 48 -5 57
-27 6 -16 20 -27 42 -32 18 -4 27 -9 20 -12 -8 -2 -38 8 -67 23 -29 14 -69 28
-88 29 -18 2 -48 10 -66 19 -18 9 -39 13 -47 10 -8 -3 -21 3 -29 13 -14 18
-14 18 -15 -3 0 -24 -15 -39 -24 -24 -4 5 0 11 6 14 21 6 -9 53 -35 54 -12 1
-23 7 -25 13 -2 5 -13 10 -23 10 -11 0 -17 5 -14 10 4 6 11 8 16 4 5 -3 2 11
-8 30 -9 20 -25 38 -35 42 -10 3 -18 11 -18 19 0 15 -31 15 -42 0 -4 -6 -8 -2
-8 8 0 10 -4 16 -9 12 -12 -7 -7 60 10 145 17 88 59 180 103 223 20 20 36 44
36 53 0 11 6 15 20 11 10 -3 27 1 37 8 15 11 22 11 46 -1 15 -8 32 -12 38 -9
5 4 16 2 24 -5 10 -8 25 -8 62 3 39 12 55 12 78 3 17 -7 37 -11 47 -8 9 2 33
-4 53 -13 52 -25 55 -20 64 113 1 11 17 13 71 10 49 -3 76 -1 88 8 29 22 69
16 104 -15z m-2217 -311 c3 -5 1 -10 -4 -10 -6 0 -11 5 -11 10 0 6 2 10 4 10
3 0 8 -4 11 -10z m1225 -100 c0 -5 -5 -10 -11 -10 -5 0 -7 5 -4 10 3 6 8 10
11 10 2 0 4 -4 4 -10z m1464 -35 c3 -8 1 -15 -3 -15 -5 0 -11 7 -15 15 -3 8
-1 15 3 15 5 0 11 -7 15 -15z m-1549 -25 c3 -5 1 -10 -4 -10 -6 0 -11 5 -11
10 0 6 2 10 4 10 3 0 8 -4 11 -10z m175 -40 c0 -5 -5 -10 -11 -10 -5 0 -7 5
-4 10 3 6 8 10 11 10 2 0 4 -4 4 -10z m1360 -39 c0 -17 -18 -21 -24 -6 -3 9 0
15 9 15 8 0 15 -4 15 -9z m-1307 -49 c-14 -14 -22 -16 -35 -8 -17 10 -17 11 0
18 9 3 25 7 35 7 16 1 16 0 0 -17z m-367 -9 c4 -10 6 -21 6 -25 -1 -5 1 -7 6
-6 4 1 17 -1 29 -6 15 -5 20 -12 16 -23 -5 -12 -2 -15 8 -11 9 4 20 -2 27 -12
21 -34 -10 -28 -46 9 -18 20 -31 31 -28 24 4 -6 -2 -14 -11 -17 -21 -7 -80
-56 -67 -56 5 0 -4 -7 -20 -15 -15 -8 -31 -15 -35 -15 -10 0 -6 74 5 91 11 17
54 42 61 35 8 -8 -8 -27 -18 -21 -5 4 -9 2 -9 -4 0 -5 6 -11 13 -14 7 -2 0
-10 -15 -17 -16 -7 -28 -17 -28 -22 0 -11 8 -10 23 3 7 5 30 21 52 34 22 14
33 25 24 25 -26 0 -35 60 -9 60 4 0 11 -8 16 -17z m313 -25 c12 -16 11 -18 -8
-18 -12 0 -19 5 -16 10 3 6 0 10 -7 10 -10 0 -9 3 2 10 8 5 15 8 15 7 0 -1 7
-10 14 -19z m131 12 c0 -11 -14 -11 -50 0 -22 7 -21 8 13 9 20 1 37 -3 37 -9z
m-264 -22 c15 -19 16 -20 2 -9 -13 10 -18 10 -18 2 0 -7 -5 -9 -12 -5 -9 6 -9
9 1 12 11 4 11 6 0 13 -8 5 -9 9 -3 9 6 0 19 -10 30 -22z m206 -30 c-6 -6 -25
-11 -42 -11 -17 0 -36 5 -42 11 -9 9 1 12 42 12 41 0 51 -3 42 -12z m38 -15
c0 -29 -12 -24 -17 7 -2 11 2 20 7 20 6 0 10 -12 10 -27z m-254 -31 c-11 -10
-15 4 -8 28 l7 25 3 -23 c2 -13 1 -26 -2 -30z m285 -5 c-10 -9 -11 -8 -5 6 3
10 9 15 12 12 3 -3 0 -11 -7 -18z m624 -5 c-3 -3 -11 0 -18 7 -9 10 -8 11 6 5
10 -3 15 -9 12 -12z m-955 -2 c0 -5 -7 -7 -15 -4 -8 4 -15 8 -15 10 0 2 7 4
15 4 8 0 15 -4 15 -10z m-36 -26 c3 -8 2 -12 -4 -9 -6 3 -10 10 -10 16 0 14 7
11 14 -7z m80 -13 c-2 -3 -12 3 -22 13 -16 17 -16 18 5 5 12 -7 20 -15 17 -18z
m-52 -3 c-7 -7 -12 -8 -12 -2 0 14 12 26 19 19 2 -3 -1 -11 -7 -17z m508 18
c0 -11 -19 -15 -25 -6 -3 5 1 10 9 10 9 0 16 -2 16 -4z m297 -12 c-3 -3 -12
-4 -19 -1 -8 3 -5 6 6 6 11 1 17 -2 13 -5z m-944 -17 c3 -8 1 -20 -4 -28 -6
-10 -9 -7 -9 14 0 29 5 35 13 14z m336 -61 c-9 -8 -10 -7 -6 7 4 9 2 17 -3 17
-6 0 -10 12 -9 28 1 27 1 27 15 -7 12 -26 13 -36 3 -45z m-429 54 c0 -5 -5
-10 -11 -10 -5 0 -7 5 -4 10 3 6 8 10 11 10 2 0 4 -4 4 -10z m1645 1 c8 -14
-28 -31 -44 -21 -10 6 -9 10 5 19 24 13 31 14 39 2z m-1175 -32 c11 -19 10
-20 -10 -9 -11 6 -18 15 -15 21 9 13 13 11 25 -12z m654 -11 c3 -13 1 -27 -4
-32 -7 -7 -10 -1 -10 16 0 15 -6 29 -12 31 -8 4 -7 6 3 6 9 1 19 -9 23 -21z
m-80 3 c3 -5 -10 -11 -29 -13 -27 -3 -32 -1 -23 9 12 15 44 17 52 4z m-974
-10 c0 -5 -5 -22 -12 -38 -14 -34 -15 -39 -17 -58 -2 -23 -25 -18 -51 10 -13
14 -18 25 -12 25 6 0 14 -4 17 -10 12 -20 26 -10 14 11 -9 17 -8 23 2 30 8 5
17 3 22 -4 6 -8 7 -3 4 11 -5 20 -3 21 11 10 13 -11 15 -11 9 5 -3 9 -2 17 3
17 6 0 10 -4 10 -9z m1471 -37 c-21 -16 -28 -9 -11 11 9 11 9 15 1 15 -7 0 -9
5 -6 11 5 6 12 4 20 -8 11 -14 10 -19 -4 -29z m88 24 c12 -19 11 -23 -3 -33
-9 -7 -16 -19 -16 -28 0 -9 -4 -19 -10 -22 -5 -3 -10 -1 -10 5 0 8 -6 8 -21 0
-11 -7 -31 -13 -43 -16 -20 -3 -23 0 -19 19 4 18 11 24 34 24 33 0 63 22 42
30 -9 3 -10 10 -3 24 14 25 32 24 49 -3z m-2003 -14 c-3 -8 -2 -13 2 -12 20 4
42 -17 42 -41 l1 -26 13 24 c8 14 31 29 57 38 24 8 53 18 64 24 23 11 86 -13
66 -26 -6 -3 -11 -18 -12 -33 0 -15 -3 -21 -6 -14 -3 9 -9 10 -17 3 -6 -5 -33
-12 -60 -16 -58 -6 -66 -11 -66 -33 0 -15 2 -15 10 -2 5 8 21 16 37 17 l27 2
-33 -20 c-43 -26 -64 -19 -51 16 12 32 -2 33 -30 3 -19 -21 -21 -21 -14 -3 7
18 6 18 -9 6 -13 -10 -14 -17 -6 -27 6 -7 9 -23 6 -36 -4 -21 -4 -20 -6 4 0
15 -8 31 -18 36 -14 9 -13 13 10 38 14 15 24 31 22 35 -10 15 -95 29 -115 19
-13 -7 -20 -7 -20 -1 0 12 37 34 64 38 11 2 22 5 24 8 9 9 23 -7 18 -21z
m1561 4 c-3 -8 -6 -5 -6 6 -1 11 2 17 5 13 3 -3 4 -12 1 -19z m-72 -28 c-3 -5
-12 -10 -18 -10 -7 0 -6 4 3 10 19 12 23 12 15 0z m-885 -41 c0 -9 -31 -21
-37 -15 -3 3 -3 9 1 14 6 10 36 12 36 1z m-344 -40 c0 -12 -7 -24 -15 -27 -10
-3 -12 0 -8 12 4 10 7 24 7 32 0 9 4 13 9 10 4 -3 8 -15 7 -27z m134 -2 c0 -4
-9 -3 -20 3 -11 6 -20 15 -20 20 0 6 9 5 20 -2 11 -7 20 -16 20 -21z m-440 19
c0 -2 -7 -17 -15 -32 -15 -29 -22 -13 -9 20 5 14 24 23 24 12z m1179 -12 c-12
-15 -81 -54 -96 -54 -7 0 98 69 106 70 2 0 -2 -7 -10 -16z m-232 -5 c-10 -6
-53 -23 -96 -39 -43 -15 -89 -33 -101 -40 -38 -21 -31 -5 10 20 22 14 40 28
40 31 0 3 10 4 23 2 12 -2 45 4 72 15 55 22 80 27 52 11z m-1132 -19 c8 -13
-5 -13 -25 0 -13 8 -13 10 2 10 9 0 20 -4 23 -10z m1447 1 c-8 -4 -10 -15 -6
-26 5 -12 4 -16 -3 -12 -6 4 -13 15 -15 25 -4 13 1 18 16 20 14 1 16 -2 8 -7z
m88 -25 c0 -14 4 -36 10 -51 7 -17 7 -24 0 -20 -6 3 -10 0 -11 -7 0 -7 -7 1
-14 17 -13 31 -10 85 6 85 5 0 9 -11 9 -24z m301 7 c13 -16 12 -17 -3 -4 -10
7 -18 15 -18 17 0 8 8 3 21 -13z m-1371 -4 c13 -9 12 -10 -2 -5 -10 3 -18 1
-18 -4 0 -6 8 -10 18 -10 14 0 15 -2 2 -10 -9 -5 -19 -5 -26 1 -8 7 -14 6 -17
-3 -2 -7 -8 -10 -11 -6 -7 6 22 45 34 47 3 0 12 -4 20 -10z m60 -3 c0 -2 -6
-9 -14 -15 -11 -9 -16 -9 -22 0 -4 8 -3 9 4 5 7 -4 12 -2 12 3 0 6 5 11 10 11
6 0 10 -2 10 -4z m27 -18 c-3 -8 -6 -5 -6 6 -1 11 2 17 5 13 3 -3 4 -12 1 -19z
m933 -27 c0 -11 -4 -9 -15 5 -8 10 -15 25 -15 33 0 11 4 9 15 -5 8 -10 15 -25
15 -33z m511 -4 c-13 -13 -15 1 -4 30 7 17 8 17 11 -1 2 -10 -1 -23 -7 -29z
m-1638 27 c9 -9 -4 -34 -18 -34 -8 0 -11 8 -8 20 5 20 15 25 26 14z m1517 -9
c7 -9 8 -15 2 -15 -5 0 -12 7 -16 15 -3 8 -4 15 -2 15 2 0 9 -7 16 -15z
m-1276 -29 c-6 -16 -24 -13 -24 5 0 6 5 7 10 4 6 -3 10 -1 10 6 0 7 2 10 5 7
3 -3 3 -13 -1 -22z m400 0 c-3 -8 -12 -12 -20 -9 -17 6 -9 23 11 23 8 0 12 -6
9 -14z m186 8 c0 -2 -24 -16 -52 -30 -55 -28 -158 -66 -158 -59 0 6 86 45 99
45 6 0 11 4 11 10 0 5 7 7 15 4 8 -4 15 -1 15 5 0 6 7 11 16 11 8 0 13 3 11 8
-3 4 6 8 19 8 13 1 24 0 24 -2z m-1165 -14 c3 -5 2 -10 -4 -10 -5 0 -11 -11
-13 -25 -2 -17 -7 -22 -16 -16 -9 5 -11 17 -6 34 6 27 27 36 39 17z m1889 -6
c3 -8 2 -12 -4 -9 -6 3 -10 10 -10 16 0 14 7 11 14 -7z m-1241 -14 c3 -10 -1
-24 -9 -31 -8 -6 -14 -19 -14 -29 0 -9 -10 -25 -22 -36 -12 -10 -18 -13 -14
-6 6 10 2 10 -21 0 -15 -6 -35 -18 -45 -26 -25 -21 -140 -75 -163 -76 -11 -1
-21 -9 -23 -21 -4 -22 -22 -46 -22 -28 0 11 -41 10 -59 -2 -6 -3 -11 -12 -11
-18 0 -8 3 -8 9 2 6 10 10 10 16 1 4 -6 5 -13 3 -16 -8 -7 -87 -12 -91 -6 -2
4 -2 1 -1 -5 2 -7 -4 -17 -13 -21 -10 -6 -14 -17 -10 -31 3 -14 0 -21 -10 -21
-10 0 -12 6 -8 20 9 28 -3 44 -21 29 -12 -10 -12 -8 0 16 14 27 90 70 106 60
5 -3 11 4 15 15 3 11 12 20 20 20 7 0 15 6 17 12 3 8 26 13 64 14 71 1 170 45
160 71 -5 11 -2 13 10 9 11 -4 14 -1 10 12 -10 31 60 92 81 71 7 -7 13 -2 17
15 8 31 22 34 29 6z m357 10 c0 -5 -2 -10 -4 -10 -3 0 -8 5 -11 10 -3 6 -1 10
4 10 6 0 11 -4 11 -10z m468 -45 c-11 -12 -38 20 -38 44 0 11 6 9 24 -9 15
-16 20 -29 14 -35z m862 43 c0 -6 8 -20 18 -32 17 -20 17 -20 -10 0 -27 19
-37 44 -18 44 6 0 10 -5 10 -12z m-1535 -8 c-3 -5 -12 -10 -18 -10 -7 0 -6 4
3 10 19 12 23 12 15 0z m815 0 c0 -5 -2 -10 -4 -10 -3 0 -8 5 -11 10 -3 6 -1
10 4 10 6 0 11 -4 11 -10z m-1224 -22 c-1 -15 -8 -24 -21 -26 -20 -3 -20 -3
-1 13 20 15 20 15 0 15 -16 0 -17 2 -4 10 22 15 27 12 26 -12z m334 -13 c-25
-13 -49 -24 -55 -24 -5 0 10 11 35 24 25 13 50 24 55 24 6 0 -10 -11 -35 -24z
m870 15 c0 -5 -7 -10 -15 -10 -8 0 -15 5 -15 10 0 6 7 10 15 10 8 0 15 -4 15
-10z m63 -62 c-2 -5 -9 -8 -14 -8 -6 0 -45 -31 -87 -68 -43 -37 -99 -86 -127
-108 -59 -48 -251 -184 -259 -184 -13 0 32 37 84 70 30 19 57 37 60 41 3 3 12
10 21 15 21 12 101 78 161 133 41 37 46 46 36 60 -12 14 -11 14 5 2 16 -13 22
-10 60 25 23 21 44 40 46 42 3 1 -1 8 -7 14 -7 7 -12 19 -12 27 0 9 8 0 19
-19 10 -19 17 -38 14 -42z m211 53 c3 -5 -5 -11 -19 -13 -20 -4 -23 -3 -14 8
13 16 25 18 33 5z m-1467 -47 c-3 -3 -12 -4 -19 -1 -8 3 -5 6 6 6 11 1 17 -2
13 -5z m1529 -41 c18 -20 31 -40 28 -45 -3 -4 5 -12 18 -17 35 -14 116 -111
92 -111 -17 0 -65 44 -60 56 3 8 2 13 -2 11 -4 -1 -18 8 -31 20 -13 12 -28 20
-33 17 -28 -17 -98 31 -98 67 0 17 24 38 44 39 4 0 23 -16 42 -37z m-1286 7
c9 -16 8 -18 -5 -14 -8 4 -15 12 -15 20 0 20 7 17 20 -6z m180 -9 c-19 -10
-46 -21 -60 -25 l-25 -7 23 14 c12 7 19 17 15 22 -4 4 -3 5 4 2 6 -4 22 -3 35
2 40 16 45 11 8 -8z m878 -8 c20 -50 26 -87 13 -79 -6 4 -11 14 -11 22 0 8 -4
13 -9 10 -5 -4 -7 4 -4 15 4 14 0 25 -11 31 -20 11 -21 28 -2 28 7 0 18 -12
24 -27z m302 -3 c-6 -11 -12 -20 -14 -20 -2 0 -2 9 1 20 3 11 9 20 15 20 5 0
4 -9 -2 -20z m-1569 -20 c-20 -18 -71 -28 -71 -15 0 9 55 34 75 34 19 0 19 -1
-4 -19z m1839 0 c0 -5 -2 -10 -4 -10 -3 0 -8 5 -11 10 -3 6 -1 10 4 10 6 0 11
-4 11 -10z m-506 -15 c10 -7 26 -43 36 -79 l17 -66 -41 -37 c-107 -97 -211
-183 -220 -183 -4 0 32 35 81 78 175 155 156 132 139 172 -10 23 -15 28 -16
16 0 -36 -10 -10 -18 52 -9 66 -8 69 22 47z m-1164 -55 c-24 -15 -37 -11 -16
5 11 8 22 12 25 9 3 -3 -1 -9 -9 -14z m1605 10 c3 -5 1 -10 -4 -10 -6 0 -11 5
-11 10 0 6 2 10 4 10 3 0 8 -4 11 -10z m-255 -22 c0 -16 -3 -19 -11 -11 -6 6
-8 16 -5 22 11 17 16 13 16 -11z m-65 -5 c39 -19 42 -28 20 -69 -8 -16 -15
-39 -15 -51 0 -46 -17 -21 -28 42 -7 35 -15 71 -18 80 -8 19 -3 19 41 -2z
m-1335 -3 c-8 -5 -19 -10 -25 -10 -5 0 -3 5 5 10 8 5 20 10 25 10 6 0 3 -5 -5
-10z m1714 -5 c11 -8 18 -17 15 -19 -2 -3 -15 4 -29 14 -14 11 -20 20 -15 19
6 0 19 -6 29 -14z m-1754 -9 c0 -2 -7 -7 -16 -10 -8 -3 -12 -2 -9 4 6 10 25
14 25 6z m-110 -50 c0 -2 -7 -7 -16 -10 -8 -3 -12 -2 -9 4 6 10 25 14 25 6z
m1435 -87 c9 -39 14 -73 12 -75 -2 -3 -15 0 -28 5 -13 5 -18 10 -11 10 6 1 12
8 12 17 0 10 -6 14 -14 11 -15 -6 -26 12 -26 44 0 11 5 17 10 14 6 -3 10 2 10
13 0 16 8 32 16 32 1 0 10 -32 19 -71z m-1655 51 c0 -5 -2 -10 -4 -10 -3 0 -8
5 -11 10 -3 6 -1 10 4 10 6 0 11 -4 11 -10z m-125 -40 c3 -5 15 -10 27 -10 16
0 18 -3 9 -14 -21 -26 -48 -25 -60 1 -6 13 -11 26 -11 28 0 9 29 5 35 -5z
m165 3 c-8 -3 -23 -10 -32 -15 -11 -5 -18 -5 -18 1 0 10 23 18 50 19 13 0 13
0 0 -5z m-192 -56 c-2 -1 -13 -8 -25 -14 -19 -11 -24 -10 -33 6 -15 29 -12 41
13 50 18 7 24 4 35 -16 8 -14 12 -25 10 -26z m582 13 c17 -23 18 -29 5 -24 -9
4 -23 20 -31 36 -19 36 -3 29 26 -12z m-450 19 c0 -4 9 -10 19 -14 17 -5 39
-57 29 -68 -2 -2 2 -10 8 -18 6 -8 14 -22 18 -33 6 -16 3 -18 -24 -12 -18 3
-29 2 -25 -3 3 -5 0 -11 -7 -13 -10 -4 -10 -10 0 -29 l12 -24 -5 25 c-5 20 -4
22 4 9 6 -10 9 -31 7 -48 -2 -17 1 -34 7 -38 6 -4 7 -1 2 7 -5 9 -4 11 4 6 6
-4 8 -12 5 -18 -5 -7 -1 -9 9 -5 14 5 15 3 4 -14 -10 -16 -9 -21 2 -28 8 -5
11 -16 8 -26 -4 -9 -11 -13 -17 -10 -5 3 -10 -1 -10 -9 0 -8 -12 -21 -27 -29
-16 -7 -27 -18 -26 -23 1 -6 -27 -22 -63 -36 -35 -14 -64 -23 -64 -21 0 14 41
43 63 45 16 1 29 10 33 20 3 10 9 18 14 18 14 0 50 42 44 51 -3 5 1 6 9 3 8
-3 18 -1 22 5 3 6 1 11 -4 11 -6 0 -10 3 -10 8 3 18 -2 33 -9 28 -5 -3 -9 0
-9 7 -1 7 -13 44 -28 82 -49 130 -53 143 -48 149 4 3 12 1 20 -6 11 -9 12 -7
7 7 -5 12 -4 16 4 11 6 -3 14 -1 17 5 13 20 -2 19 -59 -6 -77 -34 -82 -31 -16
8 54 33 80 41 80 26z m61 -16 c0 -15 2 -15 9 2 8 19 9 19 9 -2 1 -13 6 -23 13
-23 6 0 3 -6 -7 -14 -18 -13 -21 -11 -32 16 -16 36 -16 38 -3 38 6 0 10 -8 11
-17z m-262 -20 c9 -19 9 -29 1 -37 -14 -14 -30 9 -30 42 0 30 14 28 29 -5z
m2041 23 c0 -2 -9 -6 -20 -9 -11 -3 -20 -1 -20 4 0 5 9 9 20 9 11 0 20 -2 20
-4z m-1883 -126 c14 -41 29 -79 34 -84 5 -6 9 -17 9 -25 0 -9 6 -28 14 -43 10
-19 11 -28 3 -31 -7 -3 -21 18 -33 47 -81 198 -88 222 -62 214 5 -2 21 -37 35
-78z m843 65 c7 -8 20 -15 29 -16 17 0 -42 -23 -229 -90 -115 -41 -160 -59
-214 -86 -15 -8 -26 -11 -23 -6 3 5 34 21 69 37 68 31 78 35 151 61 26 9 45
20 43 23 -2 4 2 13 10 20 12 11 14 10 14 -3 0 -20 10 -19 75 9 54 24 74 43 35
33 -11 -3 -20 -1 -20 4 0 5 7 9 15 9 8 0 15 5 15 10 0 15 16 12 30 -5z m-901
-26 c9 -27 8 -30 -5 -25 -10 4 -14 1 -11 -6 2 -7 9 -12 15 -11 6 1 15 -12 21
-29 14 -39 14 -48 0 -24 -9 14 -13 15 -19 6 -6 -9 -12 -4 -23 16 l-16 29 -9
-24 c-6 -16 -11 -20 -16 -13 -11 18 -27 14 -24 -4 6 -34 -20 -24 -35 13 -16
41 -13 58 9 49 8 -3 17 1 20 9 4 8 14 15 24 15 10 0 23 7 30 15 18 22 27 19
39 -16z m207 -15 c9 -7 12 -19 7 -30 -6 -15 -10 -12 -24 21 -10 22 -15 44 -11
50 4 5 8 1 10 -10 2 -11 10 -25 18 -31z m1914 22 c0 -32 -13 -39 -44 -25 -43
20 -31 46 22 48 17 1 22 -5 22 -23z m-90 8 c0 -3 -7 -12 -16 -21 -12 -12 -20
-13 -39 -5 -14 6 -33 8 -42 5 -16 -6 -16 -5 -4 10 9 11 28 17 57 17 24 0 44
-3 44 -6z m-2303 -26 c-3 -8 -6 -5 -6 6 -1 11 2 17 5 13 3 -3 4 -12 1 -19z
m2438 -16 c0 -31 -19 -28 -23 4 -3 18 0 25 10 22 7 -3 13 -14 13 -26z m-1555
8 c0 -5 -12 -10 -27 -10 -22 0 -25 2 -13 10 20 13 40 13 40 0z m812 -83 c-81
-76 -166 -147 -207 -172 -32 -20 -36 -24 68 70 15 14 29 25 32 25 4 0 45 35
119 102 69 63 58 42 -12 -25z m-1213 -33 c19 -54 21 -68 10 -75 -17 -10 -31
10 -23 34 10 32 -6 77 -27 77 -17 0 -18 2 -7 15 7 8 15 14 18 15 3 0 16 -30
29 -66z m54 7 c4 11 6 10 6 -3 1 -9 -4 -20 -10 -24 -8 -5 -8 -9 1 -14 7 -5 9
-13 4 -21 -9 -16 -42 53 -43 91 0 23 1 23 18 -9 12 -23 20 -30 24 -20z m1766
34 c12 -4 27 -2 34 3 15 11 47 12 47 0 0 -4 -6 -8 -12 -8 -7 0 -3 -8 10 -18
20 -16 21 -20 8 -37 -13 -18 -14 -18 -37 9 -18 20 -37 29 -73 34 -27 4 -51 12
-53 18 -4 11 40 11 76 -1z m-529 -68 c0 -5 -4 -5 -10 -2 -5 3 -10 14 -10 23 0
15 2 15 10 2 5 -8 10 -19 10 -23z m-1560 -19 c0 -5 -4 -8 -10 -8 -5 0 -10 10
-10 23 0 18 2 19 10 7 5 -8 10 -18 10 -22z m53 -8 c9 -23 11 -42 6 -46 -5 -3
-9 3 -9 13 0 10 -7 27 -15 37 -17 22 -19 36 -7 36 5 0 16 -18 25 -40z m2067 4
c0 -8 4 -13 9 -10 5 3 14 -1 21 -9 11 -13 7 -15 -27 -15 -21 0 -48 7 -59 15
-13 8 -37 13 -60 11 -30 -3 -44 -10 -60 -35 -17 -24 -23 -28 -28 -15 -12 31
-7 64 9 58 8 -4 22 -1 30 6 8 6 38 13 66 15 28 2 54 6 56 9 10 9 43 -14 43
-30z m-2156 -23 c-9 -10 -26 18 -18 30 5 9 9 8 14 -7 4 -10 6 -21 4 -23z
m2228 1 c-4 -13 -7 -12 -12 4 -4 10 -5 23 -2 28 7 13 21 -16 14 -32z m-382 19
c0 -5 -24 -28 -52 -52 l-53 -43 50 52 c52 55 55 57 55 43z m407 -23 c-3 -8 -6
-5 -6 6 -1 11 2 17 5 13 3 -3 4 -12 1 -19z m-639 -43 c0 -16 -2 -15 -8 5 -11
34 -11 60 0 35 5 -11 8 -29 8 -40z m-1148 41 c0 -2 -7 -7 -16 -10 -8 -3 -12
-2 -9 4 6 10 25 14 25 6z m-405 -26 c3 -5 1 -10 -4 -10 -6 0 -11 5 -11 10 0 6
2 10 4 10 3 0 8 -4 11 -10z m270 0 c-3 -5 -10 -10 -16 -10 -5 0 -9 5 -9 10 0
6 7 10 16 10 8 0 12 -4 9 -10z m84 6 c-10 -9 -203 -85 -207 -81 -4 4 17 14
128 61 48 21 92 32 79 20z m1240 -55 c5 -24 6 -39 2 -35 -11 13 -31 98 -21 88
5 -5 13 -29 19 -53z m-926 29 c3 -11 1 -18 -4 -14 -5 3 -9 12 -9 20 0 20 7 17
13 -6z m1359 0 c10 0 22 -9 28 -19 9 -18 7 -19 -19 -16 -33 4 -71 25 -71 39 0
4 10 6 23 2 12 -3 30 -6 39 -6z m-1453 -30 c11 -24 11 -24 -3 -6 -9 11 -16 24
-16 30 0 12 5 7 19 -24z m1836 21 c-7 -12 31 -25 45 -16 5 3 10 1 10 -5 0 -7
6 -8 19 -1 23 13 34 1 85 -87 l36 -63 -36 -37 c-31 -32 -35 -41 -32 -82 2 -32
-1 -44 -9 -43 -7 2 -12 0 -11 -5 0 -4 -2 -14 -5 -22 -3 -8 -7 -26 -9 -40 -2
-19 -8 -24 -23 -22 -14 2 -16 0 -7 -6 7 -5 12 -26 12 -48 0 -21 0 -50 0 -63 0
-19 -4 -22 -21 -18 -12 3 -22 0 -26 -9 -4 -12 -8 -12 -18 3 -11 15 -16 16 -41
3 -16 -7 -32 -13 -36 -12 -5 1 -8 -11 -8 -28 0 -23 4 -30 20 -30 11 0 20 -4
20 -9 0 -5 3 -18 6 -28 6 -15 4 -15 -14 4 -14 14 -28 19 -43 16 -21 -6 -21 -7
-3 -21 18 -14 18 -14 1 -8 -10 3 -26 6 -35 7 -11 0 -12 2 -4 6 20 8 13 25 -8
18 -15 -5 -18 -3 -14 9 3 9 14 16 24 16 11 0 21 4 25 9 9 16 -15 24 -30 11
-12 -10 -15 -9 -15 4 0 19 -16 21 -23 4 -3 -8 -6 -6 -6 4 -1 9 7 22 17 27 13
8 14 11 2 11 -12 0 -11 3 3 11 10 6 24 9 30 6 7 -2 19 3 27 11 13 14 12 15 -3
9 -9 -3 -17 -2 -17 3 0 6 -9 10 -21 10 -11 0 -17 -4 -14 -10 3 -5 1 -10 -4
-10 -6 0 -11 5 -11 11 0 5 -4 8 -9 5 -4 -3 -7 6 -5 19 2 19 -2 25 -17 25 -21
0 -27 20 -6 21 10 0 10 2 0 6 -17 6 -17 26 -1 21 13 -5 22 2 48 37 12 17 10
16 -11 -2 -27 -24 -49 -30 -49 -13 0 6 5 9 11 8 6 -2 13 2 16 9 3 7 -3 9 -16
6 -13 -3 -21 -1 -21 8 0 16 -13 3 -16 -16 -1 -8 2 -15 7 -15 4 0 6 -7 2 -16
-5 -14 -8 -12 -19 7 l-14 24 3 -23 c2 -13 10 -28 18 -32 11 -8 10 -12 -7 -28
-18 -17 -23 -18 -39 -6 -10 8 -15 14 -9 14 5 0 1 5 -9 11 -9 6 -27 8 -40 5
-12 -3 -16 -3 -9 0 6 3 12 12 12 20 0 9 6 11 18 7 15 -6 16 -5 2 12 -14 17
-13 18 4 12 14 -6 17 -4 12 9 -5 14 -4 15 9 4 8 -7 13 -16 10 -20 -3 -5 -1
-11 4 -15 6 -3 8 6 5 21 -3 19 -1 24 8 18 8 -5 7 -1 -2 11 -14 17 -13 18 4 12
16 -6 17 -5 6 7 -10 13 -6 24 19 61 17 25 31 50 31 54 0 5 8 15 17 22 11 10
14 10 9 2 -4 -8 -2 -13 4 -13 7 0 10 6 7 14 -3 8 1 33 10 56 14 34 20 39 37
34 18 -6 19 -5 8 9 -15 18 -7 61 9 51 6 -3 5 -12 -3 -22 -10 -15 -10 -15 2 -4
8 7 15 18 15 25 0 6 9 13 20 16 11 2 31 12 44 22 25 20 46 25 36 10z m-2107
-35 c6 -15 8 -35 3 -53 -8 -25 -9 -26 -15 -8 -4 11 -13 32 -21 47 -10 20 -10
28 -2 32 21 8 24 7 35 -18z m32 -1 c0 -8 -2 -15 -4 -15 -2 0 -6 7 -10 15 -3 8
-1 15 4 15 6 0 10 -7 10 -15z m837 -1 c-3 -3 -12 -4 -19 -1 -8 3 -5 6 6 6 11
1 17 -2 13 -5z m832 -9 c-8 -8 -30 -19 -48 -25 -27 -8 -32 -6 -29 7 2 9 14 18
27 20 14 2 27 6 30 8 2 3 11 5 20 5 14 0 14 -2 0 -15z m156 5 c-3 -5 -10 -10
-16 -10 -5 0 -9 5 -9 10 0 6 7 10 16 10 8 0 12 -4 9 -10z m-1060 -19 c-30 -12
-101 -24 -93 -16 8 9 65 23 93 23 l20 1 -20 -8z m415 -137 c-80 -80 -154 -150
-165 -156 -11 -6 3 12 30 41 28 28 52 56 53 61 2 6 7 10 11 10 4 0 51 43 104
95 53 52 100 95 104 95 4 0 -57 -66 -137 -146z m-1412 82 c0 -23 -2 -24 -17
-9 -15 16 -16 15 -19 -6 -4 -24 -25 -24 -30 2 -2 9 9 21 25 29 34 18 41 15 41
-16z m885 27 c-7 -2 -19 -2 -25 0 -7 3 -2 5 12 5 14 0 19 -2 13 -5z m1097 2
c0 -7 -57 -35 -72 -35 -7 0 3 8 22 19 37 20 50 24 50 16z m-1807 -46 c-7 -7
-12 -3 -15 16 -5 25 -4 25 10 11 12 -11 13 -19 5 -27z m652 31 c-11 -5 -29 -9
-40 -9 -17 -1 -17 1 -5 9 8 5 26 9 40 9 23 0 23 -1 5 -9z m1005 -10 c-14 -11
-29 -20 -35 -20 -11 -1 -55 -35 -55 -43 0 -4 62 6 113 18 15 4 27 3 27 -2 0
-13 -60 -33 -98 -33 -45 0 -40 -20 6 -21 32 -1 34 -2 12 -8 -14 -5 -39 -15
-56 -24 -28 -15 -31 -14 -42 4 -15 23 -16 42 -2 34 5 -3 18 -1 27 5 17 11 17
11 1 6 -29 -9 -23 33 6 44 13 5 27 14 31 20 8 12 62 39 80 39 6 0 -1 -8 -15
-19z m-1085 -10 c-11 -5 -27 -9 -35 -9 -9 0 -8 4 5 9 11 5 27 9 35 9 9 0 8 -4
-5 -9z m-825 -26 c0 -8 -4 -14 -9 -14 -11 0 -22 26 -14 34 9 9 23 -3 23 -20z
m-63 -18 c-8 -16 -14 -21 -19 -13 -13 21 -9 37 11 37 17 0 18 -3 8 -24z m44
-123 c21 -52 28 -84 18 -78 -5 4 -9 14 -9 24 0 9 -7 26 -15 37 -14 19 -20 44
-10 44 3 0 10 -12 16 -27z m209 1 c0 -8 -5 -12 -10 -9 -6 4 -8 11 -5 16 9 14
15 11 15 -7z m140 -4 c-8 -5 -19 -10 -25 -10 -5 0 -3 5 5 10 8 5 20 10 25 10
6 0 3 -5 -5 -10z m1124 -12 c11 -44 5 -65 -9 -28 -17 43 -17 50 -6 50 5 0 11
-10 15 -22z m34 -25 c6 -18 7 -33 2 -33 -12 0 -16 9 -25 50 -9 42 7 30 23 -17z
m-51 -37 c-3 -6 -10 0 -16 14 -10 22 -11 20 -5 -15 4 -31 3 -37 -6 -28 -9 8
-10 26 -5 60 l8 48 14 -34 c8 -18 12 -38 10 -45z m458 65 c-11 -11 -97 -32
-103 -26 -2 2 16 9 39 15 24 6 49 13 54 15 17 6 19 5 10 -4z m-1729 -27 c-4
-11 3 -10 35 2 22 9 42 14 45 11 3 -2 -16 -12 -42 -21 -30 -10 -51 -13 -57 -7
-13 13 0 44 14 36 6 -4 8 -13 5 -21z m121 20 c-3 -3 -12 -4 -19 -1 -8 3 -5 6
6 6 11 1 17 -2 13 -5z m1568 -44 c-3 -5 -16 -10 -28 -9 -20 1 -20 2 3 9 14 4
26 8 28 9 2 1 0 -3 -3 -9z m-1625 -25 c0 -25 -18 -25 -22 -1 -4 17 -1 23 9 19
7 -3 13 -11 13 -18z m-123 9 c-3 -3 -12 -4 -19 -1 -8 3 -5 6 6 6 11 1 17 -2
13 -5z m81 -29 c2 -16 8 -33 14 -36 12 -7 2 -29 -13 -29 -5 0 -9 9 -9 19 0 11
-4 22 -9 25 -5 3 -11 17 -14 31 -3 20 -1 25 12 23 9 -2 17 -15 19 -33z m-558
4 c0 -5 -4 -9 -8 -9 -5 0 -9 7 -9 15 0 8 4 12 9 9 4 -3 8 -9 8 -15z m1617 15
c-3 -3 -12 -4 -19 -1 -8 3 -5 6 6 6 11 1 17 -2 13 -5z m-1657 -14 c-20 -13
-33 -13 -25 0 3 6 14 10 23 10 15 0 15 -2 2 -10z m1580 0 c0 -5 -8 -10 -17
-10 -15 0 -16 2 -3 10 19 12 20 12 20 0z m494 -2 c-18 -31 -67 -88 -71 -84 -3
3 1 12 8 20 8 8 25 28 38 45 23 31 39 42 25 19z m-539 -8 c-3 -5 -14 -10 -23
-9 -14 0 -13 2 3 9 27 11 27 11 20 0z m-1514 -9 c4 -1 9 -10 12 -22 4 -14 2
-19 -8 -16 -7 3 -17 1 -23 -5 -8 -8 -15 -8 -26 1 -12 10 -13 9 -9 -10 4 -14 2
-20 -5 -16 -14 9 -9 36 9 48 12 7 12 9 -1 10 -8 1 -19 1 -23 0 -5 -1 -6 2 -4
6 4 7 42 8 78 4z m629 -11 c0 -5 -4 -10 -10 -10 -5 0 -10 5 -10 10 0 6 5 10
10 10 6 0 10 -4 10 -10z m827 4 c-3 -3 -12 -4 -19 -1 -8 3 -5 6 6 6 11 1 17
-2 13 -5z m-77 -14 c-8 -5 -24 -9 -35 -9 l-20 0 20 9 c11 5 27 9 35 9 13 1 13
0 0 -9z m-60 -4 c0 -2 -7 -7 -16 -10 -8 -3 -12 -2 -9 4 6 10 25 14 25 6z m180
0 c0 -2 3 -12 7 -21 5 -14 3 -16 -13 -8 -10 6 -25 8 -32 6 -8 -3 -10 1 -6 11
5 14 44 24 44 12z m76 -52 c-3 -8 0 -14 7 -15 9 0 9 -2 -1 -6 -6 -2 -10 -9 -6
-14 3 -5 0 -9 -6 -9 -6 0 -9 -4 -5 -9 3 -5 1 -12 -4 -15 -13 -8 -21 34 -10 55
5 10 9 28 9 41 1 21 2 21 11 5 6 -10 8 -25 5 -33z m871 22 c-19 -15 -24 -31
-5 -20 7 5 8 3 3 -5 -5 -9 -10 -10 -18 -2 -7 7 -5 16 8 31 10 11 21 17 24 14
3 -3 -2 -11 -12 -18z m-1892 4 c-3 -5 -11 -10 -16 -10 -6 0 -7 5 -4 10 3 6 11
10 16 10 6 0 7 -4 4 -10z m1095 -16 c0 -2 -13 -4 -30 -4 -20 0 -30 5 -30 14 0
12 6 13 30 5 17 -6 30 -13 30 -15z m-1726 -16 c6 -4 7 -10 3 -15 -10 -9 -27
16 -26 37 1 13 1 13 6 0 3 -8 11 -18 17 -22z m1508 10 c-7 -7 -12 -8 -12 -2 0
14 12 26 19 19 2 -3 -1 -11 -7 -17z m50 4 c-7 -2 -10 -8 -6 -13 3 -5 0 -9 -5
-9 -6 0 -11 -9 -11 -21 0 -11 -4 -17 -10 -14 -5 3 -3 19 7 40 9 19 21 31 27
28 6 -4 6 -8 -2 -11z m571 -12 c4 -15 -1 -22 -19 -26 -33 -8 -37 -2 -16 24 21
27 28 27 35 2z m526 -6 c-6 -7 -15 -11 -20 -8 -5 3 -9 -3 -9 -13 0 -11 -3 -14
-8 -7 -4 6 -14 14 -22 17 -10 4 -9 6 6 6 12 1 27 8 34 16 7 8 16 12 22 9 5 -3
4 -12 -3 -20z m-1849 -4 c0 -5 -2 -10 -4 -10 -3 0 -8 5 -11 10 -3 6 -1 10 4
10 6 0 11 -4 11 -10z m1024 -33 c-6 -16 -53 -41 -62 -33 -2 3 8 22 23 42 23
30 29 34 36 21 5 -8 7 -22 3 -30z m141 -62 c-42 -53 -87 -100 -98 -105 -30
-13 -276 -56 -427 -75 -118 -15 -322 -54 -400 -75 -19 -6 -44 -10 -55 -9 -20
1 36 19 137 44 31 8 121 24 200 35 79 11 158 27 176 35 20 9 31 11 26 4 -4 -7
0 -9 12 -5 11 3 37 8 59 11 95 12 158 25 171 35 7 7 23 9 34 5 24 -8 83 13 74
26 -3 5 2 6 10 3 9 -3 16 -1 16 5 0 7 11 24 24 38 14 15 44 50 68 79 74 90 53
50 -27 -51z m-925 66 c-8 -5 -26 -11 -40 -15 -21 -5 -20 -3 5 9 32 15 60 20
35 6z m1105 -26 c-16 -13 -37 -25 -45 -26 -8 0 -4 -5 10 -9 14 -4 19 -8 12 -9
-7 -1 -10 -5 -7 -11 8 -13 34 11 28 26 -2 7 0 15 5 18 5 3 9 -9 9 -27 -1 -25
3 -32 16 -31 10 1 16 -3 14 -9 -2 -7 -10 -12 -18 -12 -17 0 -59 -27 -59 -38 0
-4 11 0 25 9 25 16 25 16 25 -10 0 -16 -4 -25 -10 -21 -6 3 -19 3 -30 0 -16
-5 -18 -10 -10 -26 6 -10 18 -19 28 -18 16 0 16 1 0 7 -11 5 -14 12 -9 20 6
11 12 10 25 -4 17 -16 17 -18 1 -27 -9 -5 -30 -6 -46 -3 -19 3 -28 2 -24 -4 3
-6 -4 -10 -16 -10 -12 0 -31 -7 -41 -17 -10 -9 -18 -11 -18 -5 0 13 -55 5 -94
-14 -37 -18 -40 -18 -32 3 6 16 6 16 -11 1 -10 -10 -46 -19 -83 -23 -45 -5
-72 -14 -89 -29 l-24 -21 14 23 c8 12 17 22 21 22 5 0 8 5 8 10 0 10 18 28 69
71 10 10 16 8 23 -5 5 -9 14 -13 21 -9 7 4 21 9 31 10 22 4 39 21 76 73 13 19
36 49 52 65 15 17 36 41 47 54 18 21 21 22 27 6 5 -13 9 -14 15 -3 7 11 11 10
19 -2 8 -12 10 -13 10 -1 0 8 3 11 6 8 4 -3 16 0 28 8 33 24 34 17 1 -10z m42
3 c-3 -8 -6 -5 -6 6 -1 11 2 17 5 13 3 -3 4 -12 1 -19z m463 8 c0 -3 -4 -8
-10 -11 -5 -3 -10 -1 -10 4 0 6 5 11 10 11 6 0 10 -2 10 -4z m-1870 -26 c0
-11 -4 -20 -10 -20 -5 0 -10 9 -10 20 0 11 5 20 10 20 6 0 10 -9 10 -20z m367
-6 c-9 -9 -28 6 -21 18 4 6 10 6 17 -1 6 -6 8 -13 4 -17z m-33 -28 c-8 -31
-19 -33 -34 -5 -9 17 -8 23 7 34 23 18 36 5 27 -29z m415 27 c5 -10 13 -17 17
-15 6 2 33 -59 34 -76 0 -2 -10 -2 -22 0 -16 2 -30 18 -45 48 -12 25 -22 48
-23 53 0 14 29 7 39 -10z m229 -17 c-1 -2 -15 -6 -30 -10 -22 -5 -27 -3 -25
13 0 10 6 17 13 14 7 -2 15 1 19 8 6 8 10 7 17 -5 6 -10 8 -19 6 -20z m1092
24 c0 -5 -2 -10 -4 -10 -3 0 -8 5 -11 10 -3 6 -1 10 4 10 6 0 11 -4 11 -10z
m-1239 -10 c10 -6 19 -17 19 -25 0 -11 5 -10 20 5 25 25 36 25 43 0 6 -25 -32
-57 -45 -37 -5 9 -8 7 -8 -4 0 -15 -19 -29 -40 -29 -6 0 -40 81 -40 97 0 7 33
2 51 -7z m-776 -9 c-14 -12 -115 -44 -121 -38 -3 3 23 14 58 25 78 25 74 24
63 13z m225 -1 c0 -5 -5 -10 -11 -10 -5 0 -7 5 -4 10 3 6 8 10 11 10 2 0 4 -4
4 -10z m434 -20 c8 -43 8 -45 -11 -45 -20 0 -34 44 -20 63 15 19 24 14 31 -18z
m-467 -2 c-3 -8 -6 -5 -6 6 -1 11 2 17 5 13 3 -3 4 -12 1 -19z m1827 7 c-4 -8
-8 -15 -10 -15 -2 0 -4 7 -4 15 0 8 4 15 10 15 5 0 7 -7 4 -15z m-1008 -4 c-7
-11 -56 -21 -56 -10 0 9 19 17 43 18 10 1 16 -3 13 -8z m-838 -20 c3 -8 -1
-12 -9 -9 -7 2 -15 10 -17 17 -3 8 1 12 9 9 7 -2 15 -10 17 -17z m56 -22 c-16
-16 -21 -17 -21 -5 0 8 5 12 10 9 6 -4 8 0 4 9 -7 20 3 32 17 18 7 -7 4 -17
-10 -31z m-379 11 c-11 -5 -29 -8 -40 -8 -16 0 -15 2 5 8 34 11 60 11 35 0z
m115 6 c0 -3 -4 -8 -10 -11 -5 -3 -10 -1 -10 4 0 6 5 11 10 11 6 0 10 -2 10
-4z m975 -25 c-3 -3 -10 1 -15 9 -7 10 -10 11 -10 3 0 -7 -8 -13 -17 -13 -16
1 -16 2 1 15 15 11 23 12 33 3 7 -6 11 -13 8 -17z m74 15 c-12 -10 -59 -15
-59 -6 0 5 14 10 32 10 17 0 29 -2 27 -4z m391 -39 c0 -38 -8 -52 -89 -152
-96 -119 -167 -199 -154 -174 4 8 23 33 41 55 159 192 192 239 192 277 0 20 2
37 5 37 3 0 5 -19 5 -43z m653 18 c-3 -9 -8 -14 -10 -11 -3 3 -2 9 2 15 9 16
15 13 8 -4z m-206 -17 c-3 -8 -6 -5 -6 6 -1 11 2 17 5 13 3 -3 4 -12 1 -19z
m-1267 8 c0 -3 -4 -8 -10 -11 -5 -3 -10 -1 -10 4 0 6 5 11 10 11 6 0 10 -2 10
-4z m80 -10 c0 -3 -4 -8 -10 -11 -5 -3 -10 -1 -10 4 0 6 5 11 10 11 6 0 10 -2
10 -4z m1365 -6 c-3 -5 -12 -10 -18 -10 -7 0 -6 4 3 10 19 12 23 12 15 0z
m-2253 -58 c10 -26 18 -54 17 -62 -1 -21 -49 81 -49 104 0 28 11 12 32 -42z
m2138 48 c0 -5 -4 -10 -10 -10 -5 0 -10 5 -10 10 0 6 5 10 10 10 6 0 10 -4 10
-10z m-1710 -4 c0 -2 -7 -7 -16 -10 -8 -3 -12 -2 -9 4 6 10 25 14 25 6z m1660
-17 c-7 -11 -14 -18 -17 -15 -3 3 0 12 7 21 18 21 23 19 10 -6z m-2042 -33
c16 -45 14 -68 -3 -31 -7 17 -14 24 -14 16 -1 -20 -10 -9 -20 26 -8 26 -6 30
8 26 10 -2 23 -19 29 -37z m1998 18 c-4 -9 -9 -15 -11 -12 -3 3 -3 13 1 22 4
9 9 15 11 12 3 -3 3 -13 -1 -22z m244 14 c0 -5 10 -7 23 -4 12 3 16 3 9 0 -6
-3 -10 -10 -6 -15 3 -5 -2 -9 -10 -9 -9 0 -16 5 -16 10 0 6 -9 10 -21 10 -11
0 -18 4 -15 8 7 12 36 11 36 0z m-1060 -2 c0 -3 -4 -8 -10 -11 -5 -3 -10 -1
-10 4 0 6 5 11 10 11 6 0 10 -2 10 -4z m-1151 -37 c13 -39 14 -42 2 -35 -13 8
-32 66 -21 66 4 0 13 -14 19 -31z m51 -11 c0 -19 -2 -20 -10 -8 -13 19 -13 30
0 30 6 0 10 -10 10 -22z m1000 14 c0 -4 -9 -13 -20 -20 -11 -7 -20 -19 -20
-27 0 -17 -16 -20 -24 -6 -7 11 35 61 52 61 6 0 12 -3 12 -8z m927 -7 c0 -8
-4 -15 -9 -15 -5 0 -6 -4 -3 -10 3 -5 2 -10 -3 -10 -18 0 -21 39 -3 43 9 3 16
5 17 6 0 0 1 -6 1 -14z m284 -8 c-10 -9 -11 -8 -5 6 3 10 9 15 12 12 3 -3 0
-11 -7 -18z m-1271 3 c0 -5 -7 -10 -16 -10 -8 0 -12 5 -9 10 3 6 10 10 16 10
5 0 9 -4 9 -10z m-75 -10 c17 -8 16 -8 -7 -7 -16 1 -28 5 -28 9 0 10 9 9 35
-2z m1269 -16 c3 -8 3 -14 0 -14 -7 0 -34 27 -34 34 0 11 29 -6 34 -20z
m-1327 -52 c-17 -24 -36 -46 -41 -49 -10 -6 -7 -2 31 60 19 30 20 37 8 37 -9
0 -13 4 -10 10 4 6 13 5 25 -2 18 -11 17 -14 -13 -56z m590 62 c-3 -3 -12 -4
-19 -1 -8 3 -5 6 6 6 11 1 17 -2 13 -5z m-642 -14 c3 -5 -1 -10 -10 -10 -9 0
-13 5 -10 10 3 6 8 10 10 10 2 0 7 -4 10 -10z m575 -5 c0 -15 -48 -40 -58 -30
-8 7 29 45 45 45 7 0 13 -7 13 -15z m-640 -5 c0 -5 -5 -10 -11 -10 -5 0 -7 5
-4 10 3 6 8 10 11 10 2 0 4 -4 4 -10z m205 0 c3 -5 1 -10 -4 -10 -6 0 -11 5
-11 10 0 6 2 10 4 10 3 0 8 -4 11 -10z m350 -22 c-14 -18 -57 -64 -97 -103
-74 -72 -69 -60 15 33 26 30 45 58 42 62 -5 8 40 39 58 40 4 0 -3 -15 -18 -32z
m840 22 c3 -5 1 -10 -4 -10 -6 0 -11 5 -11 10 0 6 2 10 4 10 3 0 8 -4 11 -10z
m89 -6 c3 -8 2 -12 -4 -9 -6 3 -10 10 -10 16 0 14 7 11 14 -7z m-1048 -23
c-10 -11 -15 -25 -10 -32 5 -8 3 -10 -5 -4 -8 4 -24 -3 -41 -20 l-28 -27 -7
31 c-7 34 -7 41 0 42 2 1 26 7 52 14 27 7 50 14 52 14 2 1 -4 -8 -13 -18z m64
4 c0 -8 -3 -15 -7 -16 -57 -6 -54 -7 -36 13 20 22 43 24 43 3z m454 0 c-4 -8
-11 -15 -16 -15 -6 0 -5 6 2 15 7 8 14 15 16 15 2 0 1 -7 -2 -15z m-762 -10
c-4 -5 -7 -17 -9 -25 -2 -16 -79 -90 -93 -90 -6 0 -10 -4 -10 -8 0 -4 -30 -32
-66 -62 -132 -109 -146 -123 -133 -131 9 -5 4 -10 -14 -15 -47 -11 -44 5 9 54
76 70 183 174 239 234 28 29 58 53 67 53 9 1 14 -4 10 -10z m-332 -35 c-9 -17
-15 -19 -23 -10 -9 9 -7 15 7 26 25 18 31 12 16 -16z m1327 5 c0 -8 -4 -15 -9
-15 -4 0 -8 7 -8 15 0 8 4 15 8 15 5 0 9 -7 9 -15z m203 5 c0 -5 -2 -10 -4
-10 -3 0 -8 5 -11 10 -3 6 -1 10 4 10 6 0 11 -4 11 -10z m-1930 -10 c0 -5 -8
-10 -17 -10 -15 0 -16 2 -3 10 19 12 20 12 20 0z m478 -59 c-6 -72 -34 -129
-77 -158 -51 -35 -51 -18 1 35 49 49 75 117 66 167 -3 14 -1 22 5 18 5 -3 7
-31 5 -62z m-228 44 c0 -8 -4 -15 -10 -15 -5 0 -7 7 -4 15 4 8 8 15 10 15 2 0
4 -7 4 -15z m-293 -1 c-3 -3 -12 -4 -19 -1 -8 3 -5 6 6 6 11 1 17 -2 13 -5z
m2068 -4 c3 -5 1 -10 -4 -10 -6 0 -11 5 -11 10 0 6 2 10 4 10 3 0 8 -4 11 -10z
m-2115 -4 c0 -6 -191 -48 -196 -43 -3 2 30 14 73 25 74 19 123 26 123 18z
m1140 -16 c0 -5 -5 -10 -11 -10 -5 0 -7 5 -4 10 3 6 8 10 11 10 2 0 4 -4 4
-10z m-332 -27 c0 -21 -19 -44 -80 -103 -44 -41 -87 -79 -96 -84 -10 -5 -35
-29 -56 -53 -21 -23 -44 -43 -50 -43 -6 0 -26 -16 -45 -35 -30 -32 -71 -47
-71 -26 0 14 127 121 144 121 9 0 16 5 16 11 0 12 89 99 101 99 4 0 11 5 15
12 5 7 2 9 -7 4 -8 -4 17 22 55 58 37 36 69 66 71 66 1 0 3 -12 3 -27z m-178
-12 c-14 -27 -30 -36 -30 -17 0 8 8 20 18 25 23 14 24 14 12 -8z m-703 -28 c0
-17 -12 -17 -27 1 -9 12 -8 15 8 13 10 0 19 -7 19 -14z m63 3 c0 -3 -4 -8 -10
-11 -5 -3 -10 -1 -10 4 0 6 5 11 10 11 6 0 10 -2 10 -4z m35 -7 c11 -16 1 -19
-13 -3 -7 8 -8 14 -3 14 5 0 13 -5 16 -11z m-272 -18 c-26 -22 -30 -36 -8 -28
8 4 17 1 21 -5 4 -6 3 -8 -4 -4 -6 3 -13 2 -17 -4 -4 -6 -13 -4 -23 7 -10 10
-13 18 -6 20 6 2 20 10 30 18 28 21 33 18 7 -4z m303 4 c-3 -9 0 -15 10 -15 9
0 12 -5 8 -12 -5 -10 -3 -10 7 0 12 11 12 14 -1 22 -13 8 -13 10 1 10 27 0 29
-12 8 -41 -11 -16 -17 -29 -12 -29 4 0 0 -5 -10 -11 -9 -5 -21 -7 -27 -4 -5 3
-12 -5 -16 -19 -5 -21 -11 -25 -35 -22 -19 2 -30 -2 -34 -13 -3 -9 -21 -26
-40 -38 l-35 -22 0 24 c0 25 -14 33 -24 16 -3 -5 -17 -11 -31 -13 -24 -5 -24
-4 -10 12 8 9 12 20 8 25 -5 4 -2 5 5 1 7 -4 10 -12 7 -17 -4 -5 -1 -9 4 -9 6
0 11 5 11 11 0 7 9 9 23 5 16 -4 26 1 36 16 11 18 11 20 -3 15 -10 -4 -13 -1
-10 8 4 9 13 11 27 6 26 -9 57 -4 57 9 0 5 8 7 18 3 14 -5 13 -2 -4 13 -22 20
-38 64 -24 64 5 0 11 -6 13 -12 3 -7 6 -5 6 6 1 18 2 18 20 2 18 -17 20 -16
26 3 3 12 11 21 17 21 5 0 8 -7 4 -15z m414 6 c0 -5 -7 -12 -16 -15 -14 -5
-15 -4 -4 9 14 17 20 19 20 6z m-517 -41 c-7 -8 -22 24 -16 34 4 5 10 1 13
-10 4 -10 6 -21 3 -24z m-75 12 c-11 -2 -15 -9 -12 -20 4 -12 3 -13 -3 -4 -7
9 -18 8 -51 -8 -49 -24 -76 -26 -44 -4 16 11 20 19 13 28 -7 8 0 11 25 10 19
-1 34 1 34 6 0 4 12 5 28 2 18 -4 21 -7 10 -10z m542 -2 c0 -5 -5 -10 -11 -10
-5 0 -7 5 -4 10 3 6 8 10 11 10 2 0 4 -4 4 -10z m1715 -1 c4 -6 13 -8 21 -5 8
3 14 1 14 -4 0 -6 -6 -10 -13 -10 -17 0 -56 29 -40 30 6 0 15 -5 18 -11z
m-2205 -8 c0 -5 9 -13 20 -16 11 -3 20 -11 20 -16 0 -16 -25 -10 -43 11 -20
23 -21 30 -7 30 6 0 10 -4 10 -9z m1349 -48 c-13 -21 -33 -52 -46 -69 -19 -25
-23 -44 -23 -98 0 -66 0 -66 25 -60 15 4 25 2 25 -5 0 -7 -20 -10 -52 -10 -29
1 -43 4 -30 6 22 4 22 8 16 63 -6 56 -5 60 35 118 40 59 40 61 18 65 -19 4
-19 4 5 6 15 0 30 6 33 11 3 6 9 10 11 10 3 0 -5 -17 -17 -37z m-1652 5 c-3
-8 -6 -5 -6 6 -1 11 2 17 5 13 3 -3 4 -12 1 -19z m103 8 c0 -2 -7 -6 -15 -10
-8 -3 -15 -1 -15 4 0 6 7 10 15 10 8 0 15 -2 15 -4z m390 -16 c0 -5 -2 -10 -4
-10 -3 0 -8 5 -11 10 -3 6 -1 10 4 10 6 0 11 -4 11 -10z m1083 3 c-7 -2 -19
-2 -25 0 -7 3 -2 5 12 5 14 0 19 -2 13 -5z m-1453 -7 c0 -3 -4 -8 -10 -11 -5
-3 -10 -1 -10 4 0 6 5 11 10 11 6 0 10 -2 10 -4z m130 0 c0 -3 -4 -8 -10 -11
-5 -3 -10 -1 -10 4 0 6 5 11 10 11 6 0 10 -2 10 -4z m2238 -21 c-3 -3 -9 2
-12 12 -6 14 -5 15 5 6 7 -7 10 -15 7 -18z m-2028 7 c0 -5 -7 -9 -15 -9 -8 0
-15 4 -15 9 0 4 7 8 15 8 8 0 15 -4 15 -8z m987 2 c-3 -3 -12 -4 -19 -1 -8 3
-5 6 6 6 11 1 17 -2 13 -5z m-1370 -10 c-3 -3 -12 -4 -19 -1 -8 3 -5 6 6 6 11
1 17 -2 13 -5z m1276 -1 c-7 -2 -19 -2 -25 0 -7 3 -2 5 12 5 14 0 19 -2 13 -5z
m-138 -13 c-3 -5 -14 -10 -23 -10 -15 0 -15 2 -2 10 20 13 33 13 25 0z m48 3
c-7 -2 -19 -2 -25 0 -7 3 -2 5 12 5 14 0 19 -2 13 -5z m527 -12 c0 -5 -19 -37
-43 -72 -38 -57 -51 -86 -72 -166 -3 -11 -12 -24 -20 -27 -12 -4 -15 5 -15 49
0 29 4 56 9 59 5 3 21 32 36 63 32 69 52 93 70 87 7 -3 16 -1 20 5 8 13 15 14
15 2z m-680 -5 c0 -2 -13 -6 -30 -8 -16 -3 -30 -1 -30 4 0 4 14 8 30 8 17 0
30 -2 30 -4z m-87 -13 c-7 -2 -19 -2 -25 0 -7 3 -2 5 12 5 14 0 19 -2 13 -5z
m-483 -43 c0 -5 -4 -10 -10 -10 -5 0 -10 5 -10 10 0 6 5 10 10 10 6 0 10 -4
10 -10z m60 0 c0 -5 -4 -10 -10 -10 -5 0 -10 5 -10 10 0 6 5 10 10 10 6 0 10
-4 10 -10z m210 -5 c-7 -8 -17 -15 -22 -15 -6 0 -5 7 2 15 7 8 17 15 22 15 6
0 5 -7 -2 -15z m-123 -53 c-21 -22 -37 -48 -38 -62 0 -22 -1 -22 -8 -6 -6 16
-12 14 -44 -24 -41 -49 -45 -60 -19 -60 16 -1 16 -1 0 -14 -10 -7 -18 -23 -18
-35 0 -18 -6 -21 -40 -21 -30 0 -42 -5 -47 -17 -8 -25 -64 -83 -80 -83 -7 0
-13 7 -13 15 0 16 331 358 339 350 2 -3 -12 -22 -32 -43z m723 -9 c-4 -47 -5
-51 -8 -21 -2 26 -7 35 -17 32 -7 -3 -12 -14 -10 -24 2 -12 -4 -20 -18 -24
-28 -7 -33 0 -13 19 9 9 16 20 16 25 0 4 9 10 20 13 11 3 20 12 20 21 0 9 3
16 8 16 4 0 5 -26 2 -57z m-1210 22 c-7 -9 -15 -13 -19 -10 -3 3 1 10 9 15 21
14 24 12 10 -5z m-60 -4 c0 -6 -4 -12 -8 -15 -5 -3 -9 1 -9 9 0 8 4 15 9 15 4
0 8 -4 8 -9z m1039 -69 c0 -13 -3 -20 -9 -17 -5 3 -10 18 -10 33 l-1 27 -22
-28 c-25 -30 -37 -27 -37 10 0 19 5 23 30 23 21 0 30 5 31 18 2 21 16 -33 18
-66z m294 53 c3 -20 1 -25 -11 -23 -18 4 -24 48 -6 48 6 0 14 -11 17 -25z
m-474 -42 l-1 -48 -8 40 c-7 37 -5 55 6 55 2 0 3 -21 3 -47z m-69 23 c0 -11
-19 -15 -25 -6 -3 5 1 10 9 10 9 0 16 -2 16 -4z m-161 -53 c-1 -41 -2 -44 -8
-18 -7 28 -4 65 5 65 2 0 3 -21 3 -47z m-29 10 c0 -5 -4 -14 -9 -21 -6 -10
-11 -9 -22 4 -9 12 -10 15 -1 10 6 -4 12 -2 12 3 0 6 5 11 10 11 6 0 10 -3 10
-7z m90 -18 c0 -12 -29 -3 -34 10 -4 13 -2 14 14 5 11 -6 20 -13 20 -15z m657
9 c-3 -3 -12 -4 -19 -1 -8 3 -5 6 6 6 11 1 17 -2 13 -5z m-174 -11 c-7 -2 -19
-2 -25 0 -7 3 -2 5 12 5 14 0 19 -2 13 -5z m64 1 c-3 -3 -12 -4 -19 -1 -8 3
-5 6 6 6 11 1 17 -2 13 -5z m-140 -10 c-3 -3 -12 -4 -19 -1 -8 3 -5 6 6 6 11
1 17 -2 13 -5z m-64 -11 c-7 -2 -19 -2 -25 0 -7 3 -2 5 12 5 14 0 19 -2 13 -5z
m-140 -10 c-7 -2 -21 -2 -30 0 -10 3 -4 5 12 5 17 0 24 -2 18 -5z m-317 -15
c4 -6 2 -14 -4 -16 -7 -2 -12 -8 -12 -14 0 -18 -54 -53 -82 -53 -35 0 -35 8
-2 34 15 12 23 21 18 21 -5 0 2 9 16 20 28 22 55 26 66 8z m147 5 c-7 -2 -19
-2 -25 0 -7 3 -2 5 12 5 14 0 19 -2 13 -5z m187 -171 c101 -49 146 -160 105
-257 -14 -36 -17 -38 -27 -21 -6 10 -8 35 -5 55 l5 36 -14 -32 c-12 -27 -11
-37 1 -67 25 -60 20 -84 -32 -134 -47 -45 -52 -48 -73 -51 -6 0 -15 -11 -20
-23 -7 -18 -9 -19 -9 -5 -1 12 -9 17 -27 17 -19 0 -25 -4 -20 -15 3 -9 0 -15
-9 -15 -8 0 -15 6 -15 14 0 22 -62 37 -73 19 -2 -5 -2 -3 -1 4 2 7 -6 15 -17
18 -10 4 -19 13 -19 20 0 8 -18 29 -41 47 -38 31 -40 35 -34 73 3 22 8 59 9
81 2 23 6 47 10 53 5 7 1 9 -8 5 -10 -4 -16 -1 -16 7 0 7 -2 10 -5 7 -3 -2 0
-19 6 -36 17 -48 5 -62 -19 -22 -28 44 -28 82 -1 137 55 114 211 152 349 85z
m295 -394 c4 -18 19 -55 32 -82 22 -44 23 -50 9 -64 -11 -11 -19 -12 -28 -5
-10 8 -52 -8 -163 -62 l-150 -74 88 -41 c48 -23 85 -45 82 -50 -7 -11 74 -50
103 -50 13 0 22 -6 22 -15 0 -21 -11 -19 -77 15 -64 34 -67 34 -57 19 9 -15
-24 -5 -102 31 -34 15 -80 31 -103 35 -23 4 -47 12 -53 19 -17 18 -86 -1 -177
-47 -40 -21 -75 -36 -78 -33 -3 2 27 21 66 40 39 20 71 39 71 42 0 9 -245
-120 -253 -134 -7 -10 -12 -10 -23 -1 -12 10 -2 18 56 47 38 19 67 38 65 43
-3 4 26 24 65 45 39 20 69 38 68 40 -3 2 -207 85 -242 98 -10 3 -17 9 -14 12
5 4 135 -42 220 -80 30 -13 36 -13 32 -2 -3 7 2 31 11 51 8 21 14 39 13 41 -2
1 -38 16 -81 33 -43 17 -96 40 -117 51 -46 24 -50 24 -50 6 0 -7 -10 -36 -21
-65 -15 -36 -27 -51 -41 -51 -29 0 -33 27 -10 78 11 26 25 61 30 77 11 36 32
39 48 6 10 -18 52 -41 176 -93 90 -38 165 -69 168 -70 6 -3 191 84 285 133 42
22 71 44 74 55 8 44 47 45 56 2z m-445 -109 c0 -5 -4 -9 -10 -9 -5 0 -10 7
-10 16 0 8 5 12 10 9 6 -3 10 -10 10 -16z m130 11 c-18 -12 -30 -13 -30 -2 0
4 10 9 22 9 18 2 20 0 8 -7z m-65 -10 c3 -5 1 -10 -4 -10 -6 0 -11 5 -11 10 0
6 2 10 4 10 3 0 8 -4 11 -10z"/>
<path d="M5040 8415 c0 -17 5 -25 18 -24 10 0 12 3 5 6 -7 2 -13 11 -13 18 0
7 6 16 13 18 7 3 5 6 -5 6 -13 1 -18 -7 -18 -24z"/>
<path d="M4990 8419 c0 -5 4 -8 9 -5 5 3 12 -1 15 -10 4 -9 9 -15 11 -12 3 3
3 13 -1 22 -7 18 -34 22 -34 5z"/>
<path d="M5573 7228 c-61 -23 -76 -50 -46 -80 38 -38 99 -1 110 66 6 41 7 41
-64 14z"/>
<path d="M4193 7205 c-44 -20 -53 -28 -53 -49 0 -34 32 -52 69 -37 31 14 51
42 56 82 4 35 -3 36 -72 4z"/>
<path d="M3636 7212 c-3 -4 8 -13 23 -18 23 -9 27 -8 28 8 1 13 -5 18 -22 18
-13 0 -26 -4 -29 -8z"/>
<path d="M4995 6850 c4 -6 11 -8 16 -5 14 9 11 15 -7 15 -8 0 -12 -5 -9 -10z"/>
<path d="M4099 6574 c-5 -15 -7 -29 -4 -32 3 -3 5 1 5 9 0 12 2 12 9 0 6 -9
11 -10 15 -2 4 6 2 11 -5 11 -6 0 -9 8 -6 20 7 29 -2 25 -14 -6z"/>
<path d="M3900 6575 c0 -8 4 -15 10 -15 5 0 7 7 4 15 -4 8 -8 15 -10 15 -2 0
-4 -7 -4 -15z"/>
<path d="M4130 6579 c0 -5 9 -9 20 -9 11 0 20 2 20 4 0 2 -9 6 -20 9 -11 3
-20 1 -20 -4z"/>
<path d="M4012 6538 c2 -9 0 -16 -3 -15 -4 1 -16 -6 -27 -16 -10 -9 -25 -16
-33 -14 -8 2 -11 2 -6 0 4 -3 5 -9 1 -14 -3 -5 2 -9 10 -9 9 0 16 -4 16 -10 0
-5 13 -8 29 -7 16 1 29 5 28 9 -2 6 6 9 21 7 4 -1 31 -2 59 -3 56 -1 68 9 31
24 l-23 9 23 0 c14 1 26 -7 31 -21 4 -12 10 -17 13 -12 4 5 -2 20 -13 33 -10
13 -19 19 -19 15 0 -5 -4 -3 -9 4 -5 8 -30 14 -62 15 -30 1 -58 6 -62 12 -5 6
-7 3 -5 -7z"/>
<path d="M4240 6503 c0 -7 5 -15 10 -18 14 -9 1 -28 -15 -21 -7 2 -15 -5 -19
-17 -6 -25 2 -37 13 -18 5 7 10 9 12 3 5 -12 69 -3 69 10 0 5 -5 6 -11 2 -8
-4 -9 0 -4 15 5 16 3 20 -8 15 -9 -3 -22 4 -31 18 -9 12 -16 17 -16 11z"/>
<path d="M4346 6478 c3 -4 9 -8 15 -8 5 0 9 4 9 8 0 5 -7 9 -15 9 -8 0 -12 -4
-9 -9z"/>
<path d="M3786 6355 c-3 -9 0 -15 9 -15 9 0 12 6 9 15 -4 8 -7 15 -9 15 -2 0
-5 -7 -9 -15z"/>
<path d="M4576 6225 c-8 -8 -22 -15 -30 -15 -21 0 -21 -43 -1 -63 17 -18 45
-12 74 14 23 22 27 49 9 67 -16 16 -33 15 -52 -3z m7 -54 c-4 -4 -11 -10 -15
-15 -5 -5 -8 3 -8 19 0 24 2 26 15 15 9 -7 12 -16 8 -19z"/>
<path d="M3790 6100 c0 -5 5 -10 11 -10 5 0 7 5 4 10 -3 6 -8 10 -11 10 -2 0
-4 -4 -4 -10z"/>
<path d="M3771 5658 c-1 -20 14 -24 25 -6 4 6 3 8 -4 4 -5 -3 -13 0 -15 6 -3
8 -6 6 -6 -4z"/>
<path d="M4011 5446 c-14 -8 -19 -16 -13 -20 6 -4 8 -14 5 -23 -5 -13 -2 -15
20 -9 20 5 27 3 27 -9 0 -44 33 13 35 60 0 15 -47 15 -74 1z"/>
<path d="M4130 5410 c0 -5 5 -10 10 -10 6 0 10 5 10 10 0 6 -4 10 -10 10 -5 0
-10 -4 -10 -10z"/>
<path d="M3792 5233 c-1 -14 2 -21 8 -18 6 4 8 11 5 16 -3 5 1 6 9 3 19 -7 20
-16 4 -32 -9 -9 -8 -12 4 -12 9 0 19 12 22 26 8 31 6 35 -26 38 -19 2 -24 -2
-26 -21z"/>
<path d="M3660 5230 c-9 -6 -10 -10 -3 -10 6 0 15 5 18 10 8 12 4 12 -15 0z"/>
<path d="M4020 5180 c-13 -8 -13 -10 2 -10 9 0 20 5 23 10 8 13 -5 13 -25 0z"/>
<path d="M3893 5061 c-12 -16 -19 -31 -16 -35 13 -13 42 -5 48 14 3 11 10 20
15 20 5 0 7 7 4 15 -9 22 -26 17 -51 -14z"/>
<path d="M4026 5077 c3 -10 9 -15 12 -12 3 3 0 11 -7 18 -10 9 -11 8 -5 -6z"/>
<path d="M3870 5069 c0 -5 5 -7 10 -4 6 3 10 8 10 11 0 2 -4 4 -10 4 -5 0 -10
-5 -10 -11z"/>
<path d="M3990 5060 c0 -5 5 -10 10 -10 6 0 10 5 10 10 0 6 -4 10 -10 10 -5 0
-10 -4 -10 -10z"/>
<path d="M4015 5029 c-4 -6 -5 -12 -2 -15 2 -3 7 2 10 11 7 17 1 20 -8 4z"/>
<path d="M3774 5002 c7 -21 5 -22 -18 -16 -17 4 -26 2 -26 -6 0 -7 7 -10 15
-7 8 4 17 2 20 -4 4 -5 13 -3 21 6 14 13 14 17 -2 32 -16 16 -16 16 -10 -5z"/>
<path d="M4061 5005 c1 -19 18 -51 18 -35 0 8 -4 22 -9 30 -5 8 -9 11 -9 5z"/>
<path d="M3915 4860 c-18 -19 -18 -22 -2 -38 22 -22 51 -6 55 32 4 33 -26 36
-53 6z"/>
<path d="M4076 4862 c-3 -5 1 -9 9 -9 8 0 15 4 15 9 0 4 -4 8 -9 8 -6 0 -12
-4 -15 -8z"/>
<path d="M4075 4660 c3 -5 8 -10 11 -10 2 0 4 5 4 10 0 6 -5 10 -11 10 -5 0
-7 -4 -4 -10z"/>
<path d="M3894 4645 c3 -21 16 -31 16 -12 0 9 -4 18 -9 21 -5 4 -8 -1 -7 -9z"/>
<path d="M4066 4603 c-10 -10 -7 -25 3 -19 5 4 11 1 13 -6 3 -8 7 -6 11 4 6
16 -15 32 -27 21z"/>
<path d="M3961 4568 c-1 -26 14 -29 29 -5 12 20 12 21 -2 9 -13 -10 -17 -10
-21 0 -4 9 -6 7 -6 -4z"/>
<path d="M3885 4551 c-3 -8 -3 -16 0 -19 3 -3 5 0 5 6 0 7 8 12 18 12 9 0 23
4 30 9 9 5 3 8 -17 7 -17 -1 -33 -7 -36 -15z"/>
<path d="M4045 4560 c3 -5 10 -10 16 -10 5 0 9 5 9 10 0 6 -7 10 -16 10 -8 0
-12 -4 -9 -10z"/>
<path d="M3890 4511 c0 -6 4 -13 10 -16 6 -3 7 1 4 9 -7 18 -14 21 -14 7z"/>
<path d="M3945 4510 c-3 -5 1 -10 9 -10 9 0 16 5 16 10 0 6 -4 10 -9 10 -6 0
-13 -4 -16 -10z"/>
<path d="M3996 4511 c-4 -7 -5 -15 -2 -18 9 -9 19 4 14 18 -4 11 -6 11 -12 0z"/>
<path d="M3950 4480 c0 -5 5 -10 10 -10 6 0 10 5 10 10 0 6 -4 10 -10 10 -5 0
-10 -4 -10 -10z"/>
<path d="M4031 4464 c0 -11 3 -14 6 -6 3 7 2 16 -1 19 -3 4 -6 -2 -5 -13z"/>
<path d="M3980 4463 c0 -4 5 -15 10 -23 8 -13 10 -13 10 2 0 9 -4 20 -10 23
-5 3 -10 3 -10 -2z"/>
<path d="M3935 4450 c3 -5 8 -10 11 -10 2 0 4 5 4 10 0 6 -5 10 -11 10 -5 0
-7 -4 -4 -10z"/>
<path d="M3948 4423 c7 -3 16 -2 19 1 4 3 -2 6 -13 5 -11 0 -14 -3 -6 -6z"/>
<path d="M4248 4360 c-10 -11 -13 -22 -8 -25 6 -4 10 -1 10 4 0 6 5 11 11 11
5 0 7 -4 4 -10 -3 -5 -2 -10 3 -10 6 0 12 7 16 15 3 8 1 15 -5 15 -6 0 -7 5
-4 10 11 18 -10 10 -27 -10z"/>
<path d="M4170 4359 c0 -6 -7 -9 -15 -6 -8 4 -17 2 -20 -3 -3 -4 1 -11 7 -13
11 -4 11 -6 0 -6 -10 -1 -10 -5 0 -21 16 -25 32 -25 58 -3 24 21 25 30 6 49
-17 17 -36 18 -36 3z"/>
<path d="M3787 4319 c7 -7 15 -10 18 -7 3 3 -2 9 -12 12 -14 6 -15 5 -6 -5z"/>
<path d="M3963 4228 c-19 -31 -13 -47 17 -46 16 1 31 7 34 15 3 8 2 12 -3 9
-5 -3 -11 3 -14 14 -6 23 -22 26 -34 8z"/>
<path d="M3890 4160 c0 -5 7 -10 15 -10 8 0 15 5 15 10 0 6 -7 10 -15 10 -8 0
-15 -4 -15 -10z"/>
<path d="M3766 3954 c-3 -9 -2 -22 2 -31 6 -10 9 -5 9 16 0 35 -2 38 -11 15z"/>
<path d="M3916 3951 c-3 -5 1 -11 9 -15 9 -3 15 0 15 9 0 16 -16 20 -24 6z"/>
<path d="M6013 6808 c2 -7 -2 -26 -10 -41 -8 -16 -12 -34 -10 -40 4 -14 25 22
37 64 7 23 5 29 -7 29 -8 0 -13 -6 -10 -12z"/>
<path d="M5886 6781 c-20 -22 -20 -31 -1 -31 9 0 15 9 16 23 0 20 1 20 8 3 6
-17 8 -17 14 -4 8 24 -18 30 -37 9z"/>
<path d="M5461 6644 c0 -11 3 -14 6 -6 3 7 2 16 -1 19 -3 4 -6 -2 -5 -13z"/>
<path d="M5500 6570 c0 -5 5 -10 11 -10 5 0 7 5 4 10 -3 6 -8 10 -11 10 -2 0
-4 -4 -4 -10z"/>
<path d="M5457 6536 c-4 -10 3 -13 26 -11 43 4 45 5 22 15 -29 13 -42 12 -48
-4z"/>
<path d="M6230 6534 l-25 -13 33 -1 c17 0 32 4 32 9 0 18 -15 19 -40 5z"/>
<path d="M6237 6503 c-12 -12 -7 -60 7 -72 23 -19 39 19 23 53 -12 27 -19 31
-30 19z"/>
<path d="M5467 6453 c-14 -13 -7 -23 16 -23 13 0 32 -7 43 -15 18 -14 18 -14
-3 -8 -29 7 -30 -5 -2 -15 15 -6 6 -8 -31 -9 -28 0 -57 -6 -63 -12 -16 -16 -2
-24 22 -12 13 7 22 8 26 1 3 -5 -2 -10 -12 -10 -10 0 -24 -9 -30 -20 -11 -17
-10 -18 5 -13 15 6 15 5 3 -10 -7 -9 -11 -24 -7 -32 7 -18 -3 -47 -14 -40 -4
3 -4 -12 1 -32 5 -24 4 -42 -3 -50 -17 -21 -5 -34 52 -53 67 -23 71 -24 64 -6
-3 9 3 17 15 21 21 6 28 21 30 69 1 36 26 76 46 76 8 0 15 6 15 13 0 7 15 13
37 14 21 1 40 8 45 17 5 9 19 16 31 17 l22 0 -22 11 c-12 6 -23 19 -26 29 -6
21 -27 26 -27 7 0 -6 -6 -3 -14 7 -13 19 -14 18 -9 -6 4 -20 -1 -30 -21 -43
-15 -9 -25 -13 -24 -9 1 4 -4 19 -11 31 -7 13 -10 26 -7 29 8 8 -22 35 -70 60
-44 24 -66 28 -77 16z m78 -123 c2 -3 -1 -7 -8 -7 -7 0 -20 -4 -29 -8 -12 -5
-18 -3 -18 7 0 8 3 17 6 20 6 7 43 -2 49 -12z"/>
<path d="M5628 6363 c6 -3 12 -11 12 -20 0 -13 2 -13 15 1 20 20 19 21 -13 22
-15 1 -21 -1 -14 -3z"/>
<path d="M5807 6225 c-4 -8 -2 -17 3 -20 6 -4 10 3 10 14 0 25 -6 27 -13 6z"/>
<path d="M5716 6208 c-33 -17 -37 -22 -23 -30 21 -11 77 16 77 37 0 19 -7 18
-54 -7z"/>
<path d="M4539 5907 c-11 -8 -14 -18 -8 -32 7 -18 8 -18 8 5 1 20 3 22 11 10
7 -12 9 -10 7 8 0 12 -1 22 -2 22 0 0 -7 -6 -16 -13z"/>
<path d="M6405 4690 c-3 -5 -1 -10 4 -10 6 0 11 5 11 10 0 6 -2 10 -4 10 -3 0
-8 -4 -11 -10z"/>
<path d="M6383 4650 c3 -10 1 -21 -4 -24 -5 -2 -4 -3 3 -2 7 2 12 12 10 22 -2
18 -2 18 13 0 8 -11 15 -15 15 -10 0 13 -21 34 -33 34 -5 0 -7 -9 -4 -20z"/>
<path d="M6395 4600 c-3 -5 -1 -10 4 -10 6 0 11 5 11 10 0 6 -2 10 -4 10 -3 0
-8 -4 -11 -10z"/>
<path d="M6515 4520 c-3 -5 -1 -10 4 -10 6 0 11 5 11 10 0 6 -2 10 -4 10 -3 0
-8 -4 -11 -10z"/>
<path d="M6523 4475 c0 -14 3 -25 8 -25 5 0 9 11 9 25 0 14 -4 25 -9 25 -5 0
-8 -11 -8 -25z"/>
<path d="M6605 4470 c-3 -5 1 -10 10 -10 9 0 13 5 10 10 -3 6 -8 10 -10 10 -2
0 -7 -4 -10 -10z"/>
<path d="M6555 4450 c-3 -5 -1 -10 4 -10 6 0 11 5 11 10 0 6 -2 10 -4 10 -3 0
-8 -4 -11 -10z"/>
<path d="M6590 4446 c0 -2 7 -6 15 -10 8 -3 15 -1 15 4 0 6 -7 10 -15 10 -8 0
-15 -2 -15 -4z"/>
<path d="M6630 4424 c-10 -11 -10 -14 1 -14 8 0 20 4 27 9 11 7 11 9 -1 14 -9
3 -21 -1 -27 -9z"/>
<path d="M6574 4394 c-18 -14 -18 -15 4 -4 12 6 22 13 22 15 0 8 -5 6 -26 -11z"/>
<path d="M5826 4316 c-7 -27 1 -56 15 -56 8 0 2 69 -6 78 -1 2 -5 -8 -9 -22z"/>
<path d="M5797 4311 c-2 -10 -1 -25 4 -32 6 -10 9 -4 9 19 0 36 -5 42 -13 13z"/>
<path d="M5880 4289 c0 -5 5 -7 10 -4 6 3 10 8 10 11 0 2 -4 4 -10 4 -5 0 -10
-5 -10 -11z"/>
<path d="M5775 4199 c-11 -17 1 -21 15 -4 8 9 8 15 2 15 -6 0 -14 -5 -17 -11z"/>
<path d="M4460 3770 c-8 -5 -12 -11 -10 -14 3 -2 14 2 24 10 22 15 10 19 -14
4z"/>
<path d="M4982 3124 c-26 -18 -28 -41 -6 -72 20 -30 48 -28 79 5 34 37 32 51
-10 69 -42 17 -36 17 -63 -2z"/>
<path d="M5176 3117 c-17 -13 -17 -15 -2 -46 17 -33 51 -52 74 -43 21 8 33 49
22 77 -8 20 -16 25 -43 25 -18 0 -41 -6 -51 -13z"/>
<path d="M5092 3027 c-6 -7 -15 -25 -21 -39 -13 -33 1 -46 49 -44 32 1 35 3
33 30 -2 27 -28 66 -43 66 -4 0 -12 -6 -18 -13z"/>
<path d="M5361 2883 c-67 -34 -119 -63 -113 -63 5 0 17 -18 26 -40 9 -22 20
-40 25 -40 6 0 59 25 120 55 l110 56 -21 47 c-11 26 -21 47 -22 48 0 0 -57
-28 -125 -63z"/>
<path d="M5185 2798 c-53 -27 -52 -26 -25 -45 13 -9 32 -25 42 -35 15 -15 22
-16 43 -6 19 9 22 14 14 24 -6 8 -17 29 -23 48 l-12 34 -39 -20z"/>
<path d="M5040 2788 c0 -13 -7 -36 -15 -52 -9 -16 -13 -31 -11 -33 2 -3 27 13
55 34 29 21 46 40 39 42 -7 2 -25 10 -40 18 -27 13 -28 12 -28 -9z"/>
<path d="M5074 2722 c-48 -36 -60 -62 -27 -62 13 0 13 3 3 15 -13 16 0 21 16
6 9 -9 120 2 131 13 5 4 -57 65 -67 66 -3 0 -28 -17 -56 -38z"/>
<path d="M5179 2674 c-42 -11 -43 -12 -16 -18 65 -15 76 -15 79 -5 2 6 31 -3
71 -22 37 -17 69 -30 71 -28 2 2 -34 22 -79 44 -78 38 -85 39 -126 29z"/>
<path d="M4980 2665 c-14 -8 -20 -14 -14 -15 5 0 19 7 30 15 24 18 16 19 -16
0z"/>
<path d="M4920 2635 c-14 -8 -20 -14 -14 -15 5 0 19 7 30 15 24 18 16 19 -16
0z"/>
<path d="M5250 2636 c0 -6 110 -56 123 -56 6 1 -11 11 -40 23 -29 13 -55 26
-59 30 -8 7 -24 10 -24 3z"/>
</g>
</svg>
