<?xml version="1.0" standalone="no"?>
<!DOCTYPE svg PUBLIC "-//W3C//DTD SVG 20010904//EN"
 "http://www.w3.org/TR/2001/REC-SVG-20010904/DTD/svg10.dtd">
<svg version="1.0" xmlns="http://www.w3.org/2000/svg"
 width="110" height="110" viewBox="0 0 484.000000 516.000000"
 preserveAspectRatio="xMidYMid meet">

<g transform="translate(0.000000,516.000000) scale(0.100000,-0.100000)"
fill="#000000" stroke="none">
<path d="M1939 4821 c-25 -10 -65 -21 -88 -25 -23 -3 -50 -11 -59 -16 -9 -5
-45 -20 -80 -33 -34 -14 -92 -44 -130 -68 -237 -150 -296 -190 -377 -251 -185
-139 -397 -332 -568 -517 -151 -162 -492 -568 -542 -645 -24 -36 -15 -52 75
-132 41 -37 189 -175 328 -307 139 -133 268 -251 287 -264 34 -23 35 -25 30
-76 -26 -255 -30 -439 -40 -1749 l-6 -657 23 -6 c13 -3 460 -8 993 -11 534 -4
995 -7 1025 -8 30 0 127 5 215 13 107 8 294 11 567 9 223 -2 409 -1 412 2 2 3
7 500 10 1105 3 605 9 1145 12 1200 6 90 9 102 33 125 14 14 57 62 95 107 37
45 107 117 154 160 86 78 391 379 425 420 18 21 18 23 -42 111 -34 49 -83 114
-109 145 -26 31 -87 105 -137 164 -313 376 -517 578 -803 795 -212 161 -570
358 -654 358 -12 0 -47 11 -76 25 l-53 25 -52 -29 c-79 -44 -148 -54 -387 -55
-186 -1 -222 2 -269 18 -62 21 -85 33 -128 64 -17 12 -33 22 -35 22 -1 -1 -24
-9 -49 -19z m495 -435 c2 -35 -21 -28 -28 9 -9 44 3 68 17 34 6 -13 11 -33 11
-43z m-54 -6 c6 0 8 -4 5 -10 -10 -17 -33 -11 -40 10 -9 29 6 49 16 22 5 -12
13 -22 19 -22z m130 22 c21 -17 21 -19 5 -35 -9 -10 -20 -15 -25 -12 -4 3 -10
-2 -14 -10 -11 -30 -25 -16 -16 16 5 17 9 34 8 38 -3 26 12 27 42 3z m165 -34
c6 -23 2 -30 -26 -47 -21 -13 -37 -17 -43 -11 -13 13 9 60 29 60 12 0 14 7 9
28 -6 24 -5 25 9 12 9 -8 19 -27 22 -42z m-437 -3 c19 7 42 -13 42 -36 0 -25
-17 -24 -25 0 -3 11 -12 18 -18 15 -22 -8 -51 21 -43 42 8 18 9 18 19 -4 6
-14 16 -21 25 -17z m351 26 c12 -8 13 -14 3 -35 -9 -21 -15 -24 -34 -17 -29
10 -33 25 -13 45 19 18 24 19 44 7z m-262 -15 c-3 -8 -1 -16 5 -18 6 -2 4 -8
-4 -16 -11 -9 -19 -9 -33 2 -23 17 -13 46 16 46 14 0 19 -5 16 -14z m147 -82
c3 -7 -6 -11 -20 -11 -13 0 -24 5 -24 11 0 6 9 12 20 12 11 0 22 -6 24 -12z
m23 -6 c-3 -8 -6 -5 -6 6 -1 11 2 17 5 13 3 -3 4 -12 1 -19z m-112 2 c3 -5 1
-10 -4 -10 -6 0 -11 5 -11 10 0 6 2 10 4 10 3 0 8 -4 11 -10z m35 0 c0 -5 -4
-10 -10 -10 -5 0 -10 5 -10 10 0 6 5 10 10 10 6 0 10 -4 10 -10z m48 -453 c13
-13 18 -27 13 -33 -13 -14 -24 -67 -11 -59 5 3 10 1 10 -4 0 -10 -21 -16 -42
-12 -5 0 -8 -3 -8 -9 0 -5 5 -10 10 -10 6 0 10 -5 10 -12 0 -6 -10 -3 -21 8
-16 14 -23 16 -26 6 -6 -16 -56 -42 -83 -42 -18 0 -20 4 -14 43 17 114 107
183 162 124z m-171 -214 c6 -70 10 -380 6 -414 -3 -23 -11 -39 -19 -39 -7 0
-17 -6 -21 -14 -4 -8 -15 -16 -23 -18 -21 -4 -30 -19 -30 -47 0 -26 -26 -61
-44 -61 -6 0 -5 4 3 9 10 6 10 13 3 28 -9 15 -7 23 9 36 10 9 19 22 19 29 0 7
-12 -2 -26 -20 -29 -36 -71 -64 -62 -41 4 10 -3 15 -20 16 -15 0 -28 6 -30 11
-4 12 -35 45 -76 82 l-29 25 17 -35 c14 -29 14 -32 1 -15 -8 11 -29 35 -46 53
-29 33 -31 33 -50 16 -10 -9 -19 -25 -19 -35 0 -10 -6 -30 -12 -45 -10 -22
-10 -28 0 -32 6 -2 11 -16 11 -30 -1 -16 -3 -20 -6 -10 -6 22 -32 32 -27 10 2
-9 1 -39 -3 -66 -7 -46 -9 -48 -23 -31 -8 11 -10 16 -3 12 8 -5 11 2 11 23 -2
49 -14 34 -28 -32 -7 -35 -17 -67 -23 -73 -9 -10 -8 -3 9 57 6 21 5 22 -11 8
-13 -11 -16 -24 -12 -53 4 -30 2 -37 -8 -33 -9 3 -12 0 -9 -8 3 -7 -1 -18 -8
-24 -10 -8 -12 1 -9 46 2 31 6 51 8 45 7 -20 51 71 66 137 l14 59 -23 -17
c-13 -9 -24 -25 -25 -34 -3 -32 -4 -36 -11 -44 -5 -4 -9 -1 -9 7 -1 8 -5 1 -9
-16 -7 -27 -8 -24 -9 19 -1 41 -3 47 -18 42 -10 -3 -4 6 12 20 17 14 56 48 87
75 65 56 140 93 210 103 50 8 82 30 74 51 -2 7 7 18 20 25 13 8 43 38 65 67
22 30 51 59 65 65 16 7 28 25 35 51 12 45 27 87 31 87 2 0 4 -12 5 -27z m399
-160 c-3 -7 -2 -12 2 -10 5 1 23 -15 42 -36 31 -36 33 -41 22 -70 -6 -17 -9
-33 -6 -36 2 -3 7 5 11 17 6 26 16 28 33 7 10 -12 10 -15 -3 -15 -8 0 -20 -7
-27 -15 -7 -8 -16 -13 -20 -10 -8 5 -22 -36 -15 -43 2 -3 16 10 31 28 24 28
31 31 63 25 19 -4 46 -15 59 -26 14 -10 28 -19 33 -19 4 0 23 -13 41 -30 18
-16 28 -30 23 -30 -5 0 7 -11 28 -25 46 -32 89 -106 53 -92 -8 3 -17 -1 -20
-9 -5 -13 -8 -13 -19 -2 -8 7 -16 20 -20 28 -3 9 -6 4 -6 -12 -1 -41 -18 -34
-25 10 -11 59 -16 72 -32 72 -8 0 -14 8 -14 17 0 15 -2 14 -19 -3 -10 -10 -18
-21 -17 -24 2 -12 -27 -70 -36 -70 -6 0 -3 11 6 25 9 13 16 33 16 45 0 11 5
20 10 20 6 0 10 9 10 20 0 10 8 24 18 29 9 6 12 11 7 11 -13 0 -47 -23 -99
-67 -42 -35 -88 -43 -127 -23 -16 9 -19 7 -19 -10 0 -12 7 -20 18 -21 10 0 12
-3 5 -6 -7 -2 -13 -13 -13 -24 0 -21 29 -26 47 -8 7 7 13 8 17 0 6 -9 -10 -16
-54 -23 -25 -3 -64 13 -85 37 -17 17 -25 19 -39 11 -14 -8 -20 -8 -23 2 -3 6
-9 10 -14 6 -5 -3 -9 0 -9 6 0 7 7 10 15 7 8 -4 17 -2 20 3 4 6 -1 10 -10 10
-13 0 -16 8 -13 38 3 32 6 37 26 35 14 -2 22 3 22 12 0 11 -9 15 -30 13 -21
-2 -30 -8 -30 -19 0 -27 -11 -49 -21 -43 -5 3 -9 -11 -9 -31 0 -20 -7 -44 -16
-52 -10 -11 -13 -23 -8 -37 11 -30 10 -147 -1 -171 -8 -18 -7 -19 8 -6 12 9
17 10 17 2 0 -7 5 -9 11 -5 8 4 9 -1 4 -16 -5 -15 -4 -20 4 -16 6 4 11 0 11
-9 0 -10 5 -13 11 -9 8 5 10 0 6 -17 -3 -13 -9 -44 -13 -69 -6 -36 -9 -40 -16
-25 -5 12 -6 -7 -3 -49 2 -38 0 -77 -6 -88 -6 -12 -6 -18 1 -18 13 0 13 -36
-1 -62 -9 -17 -13 -18 -20 -7 -6 9 -9 10 -9 2 0 -7 8 -16 17 -21 9 -6 18 -25
19 -46 3 -33 1 -37 -43 -56 -25 -11 -51 -20 -58 -20 -7 0 -39 -13 -71 -30 -32
-16 -60 -30 -60 -30 -3 0 3 58 11 129 l8 64 -35 -38 -35 -38 9 74 c7 67 21
150 34 204 3 11 -4 4 -15 -15 -11 -19 -20 -47 -21 -62 0 -16 -3 -28 -7 -28 -5
0 -7 55 -6 122 1 114 0 118 -8 58 -6 -36 -14 -69 -20 -75 -6 -6 -7 4 -4 25 2
19 7 68 11 108 7 68 18 90 30 58 3 -8 12 -12 20 -9 9 3 14 -2 14 -13 0 -16 2
-15 13 5 6 13 16 23 21 22 15 -4 24 20 21 58 -1 20 1 55 5 78 5 30 4 41 -4 36
-17 -11 -35 -12 -42 -2 -3 5 -10 7 -15 4 -5 -4 -9 2 -9 12 0 11 -6 25 -12 33
-7 8 -3 6 9 -3 20 -18 22 -18 42 4 12 13 21 26 21 31 0 4 0 10 0 13 0 3 9 14
20 25 11 11 20 26 20 34 0 8 5 16 11 18 6 2 9 13 7 23 -4 16 -7 13 -20 -16 -9
-20 -21 -40 -28 -44 -9 -5 -9 -3 -2 11 5 11 7 33 5 50 -5 34 22 98 37 89 5 -3
12 0 16 6 4 8 9 7 15 -2 6 -10 9 -3 9 19 0 18 4 31 9 28 4 -3 6 -18 4 -33 -3
-21 0 -17 11 12 9 22 16 41 16 43 0 2 5 0 12 -4 8 -5 9 -2 5 10 -4 10 -3 15 3
11 6 -3 10 -13 10 -21 0 -27 20 -14 21 14 0 23 1 24 8 7 6 -15 10 -8 16 32 12
91 29 76 23 -20 -3 -48 -3 -87 1 -87 3 0 6 10 7 23 1 39 13 109 19 115 3 3 12
-3 21 -14 15 -18 15 -17 10 14 -4 24 -1 34 9 39 13 4 13 8 3 22 -6 9 9 -4 35
-29 26 -24 45 -50 43 -57z m-333 -93 c-3 -12 -8 -19 -11 -16 -5 6 5 36 12 36
2 0 2 -9 -1 -20z m-730 -67 c-7 -2 -13 -16 -13 -29 0 -16 -4 -23 -11 -18 -6 3
-15 1 -19 -6 -5 -8 -9 -8 -13 4 -6 16 36 57 57 55 7 0 6 -3 -1 -6z m-73 -88
c0 -8 -4 -15 -10 -15 -5 0 -7 7 -4 15 4 8 8 15 10 15 2 0 4 -7 4 -15z m100
-81 c0 -32 -3 -43 -12 -38 -7 5 -8 3 -4 -5 5 -7 15 -10 23 -7 8 4 11 1 7 -5
-3 -6 -15 -9 -25 -6 -14 4 -19 -2 -22 -27 -2 -17 -3 -5 -3 27 1 43 4 56 14 52
7 -3 10 0 7 5 -3 6 -14 10 -23 10 -14 1 -13 4 7 20 13 11 25 20 27 20 2 0 4
-21 4 -46z m1195 7 c-8 -17 -36 -52 -60 -78 -25 -26 -45 -55 -45 -65 0 -11 -7
-18 -20 -18 -11 0 -20 6 -20 14 0 8 -2 20 -5 28 -3 8 7 18 25 26 17 8 54 40
83 72 28 32 53 57 55 55 2 -2 -4 -17 -13 -34z m-1275 9 c0 -5 -5 -10 -11 -10
-5 0 -7 5 -4 10 3 6 8 10 11 10 2 0 4 -4 4 -10z m-26 -26 c3 -8 2 -12 -4 -9
-6 3 -10 10 -10 16 0 14 7 11 14 -7z m39 -14 c-3 -11 -9 -20 -15 -20 -5 0 -4
9 2 20 6 11 12 20 14 20 2 0 2 -9 -1 -20z m396 -53 c-6 -11 -9 -48 -7 -82 3
-52 2 -60 -9 -47 -7 10 -13 13 -14 7 -2 -5 -5 24 -8 65 -5 58 -3 79 9 93 13
17 15 17 27 1 9 -12 9 -22 2 -37z m51 28 c6 -7 13 -20 14 -27 6 -32 35 -111
55 -148 4 -8 19 -18 32 -21 14 -4 17 -7 8 -8 -24 -1 -52 -111 -29 -111 7 0 8
-6 0 -19 -5 -11 -8 -50 -6 -88 5 -66 4 -67 -7 -26 -7 23 -15 45 -19 49 -12 11
-10 46 2 39 6 -3 10 -1 10 4 0 6 -6 11 -14 11 -19 0 -39 140 -30 213 5 42 3
62 -7 75 -16 19 -39 59 -39 67 0 10 18 5 30 -10z m480 -21 c0 -8 -4 -12 -10
-9 -5 3 -10 10 -10 16 0 5 5 9 10 9 6 0 10 -7 10 -16z m88 -2 c6 -18 -15 -14
-22 4 -4 10 -1 14 6 12 6 -2 14 -10 16 -16z m-61 -22 c3 -20 -11 -27 -21 -11
-7 11 4 44 12 36 3 -3 7 -14 9 -25z m-417 5 c0 -2 -11 -15 -25 -29 -28 -28
-33 -22 -9 12 13 19 34 30 34 17z m-393 -27 c-3 -8 -6 -5 -6 6 -1 11 2 17 5
13 3 -3 4 -12 1 -19z m470 0 c-3 -8 -6 -5 -6 6 -1 11 2 17 5 13 3 -3 4 -12 1
-19z m68 12 c-3 -5 -1 -10 4 -10 7 0 11 -24 11 -60 0 -60 -4 -66 -34 -54 -30
11 -16 134 15 134 6 0 7 -4 4 -10z m745 -71 c0 -45 3 -59 15 -59 16 0 40 -38
30 -48 -4 -4 -11 1 -16 11 -14 25 -38 21 -49 -8 -12 -30 -3 -55 19 -56 9 -1 6
-4 -9 -9 l-25 -8 25 -1 25 -2 -27 -14 c-24 -14 -26 -18 -17 -47 5 -18 9 -34 9
-35 0 -1 -7 0 -15 3 -11 5 -15 -2 -16 -27 -2 -33 -2 -33 -8 6 -3 22 -3 42 2
43 4 2 7 8 7 13 0 19 -20 -2 -41 -42 -27 -54 -24 -134 6 -134 11 0 22 -2 25
-5 16 -17 109 -70 123 -70 32 0 50 67 23 89 -21 17 -26 59 -9 73 12 9 14 27
10 73 -5 50 -4 54 4 25 16 -59 17 -79 3 -97 -18 -24 -17 -48 2 -64 36 -30 -6
-161 -59 -187 -15 -7 -27 -19 -27 -26 0 -19 -50 -66 -70 -66 -9 0 -25 -9 -35
-20 -15 -17 -16 -22 -4 -37 11 -15 11 -16 -1 -5 -20 17 -30 15 -30 -7 0 -11
-4 -22 -9 -25 -4 -3 -6 7 -3 22 6 34 40 69 80 83 17 6 42 28 56 50 15 21 33
39 40 39 8 0 21 14 30 30 15 30 15 30 -22 46 -20 8 -44 21 -53 30 -9 8 -29 19
-45 23 -16 5 -36 12 -45 15 -14 6 -17 -6 -23 -80 -9 -117 -25 -143 -27 -44 -1
41 -1 89 0 107 2 21 -4 35 -16 43 -16 10 -16 11 -1 6 19 -6 38 20 38 50 0 9
12 42 26 71 14 30 23 61 20 69 -6 16 27 54 47 54 9 0 9 2 0 8 -10 6 -10 28 -3
91 5 46 12 92 15 102 12 36 25 8 25 -52z m-458 -20 c2 -27 -1 -46 -7 -45 -24
4 -35 19 -35 49 0 25 3 29 11 17 8 -12 10 -9 6 12 -2 15 0 25 4 22 5 -3 10 1
10 8 2 21 8 -12 11 -63z m-1000 -96 c-3 -29 -1 -43 7 -43 7 0 9 10 6 28 -5 23
-4 24 4 6 5 -12 23 -26 40 -32 17 -6 31 -14 31 -17 0 -3 -4 -3 -10 0 -5 3 -10
1 -10 -5 0 -6 -4 -8 -10 -5 -5 3 -10 1 -10 -4 0 -6 7 -11 16 -11 8 0 13 -4 10
-9 -3 -5 0 -14 8 -20 11 -9 15 -9 19 1 3 7 5 2 4 -12 0 -14 11 -44 26 -67 15
-24 25 -43 22 -43 -2 0 -23 29 -46 65 -22 36 -44 65 -48 65 -4 0 -14 11 -21
25 -7 14 -17 25 -22 25 -5 0 -7 -4 -3 -9 3 -5 1 -12 -4 -15 -4 -3 -13 17 -18
44 -6 28 -6 50 -2 50 5 0 9 10 8 23 0 21 -1 21 -10 2 -8 -17 -9 -17 -4 5 2 14
5 43 6 65 2 36 2 35 9 -15 4 -30 5 -74 2 -97z m-25 90 c-3 -10 -5 -2 -5 17 0
19 2 27 5 18 2 -10 2 -26 0 -35z m323 43 c0 -2 -8 -10 -17 -17 -16 -13 -17
-12 -4 4 13 16 21 21 21 13z m1017 -18 c-3 -8 -6 -5 -6 6 -1 11 2 17 5 13 3
-3 4 -12 1 -19z m-70 -30 c-3 -7 -5 -2 -5 12 0 14 2 19 5 13 2 -7 2 -19 0 -25z
m-1173 -18 c4 -25 3 -31 -4 -20 -5 8 -10 26 -10 39 0 32 6 24 14 -19z m26 -20
c0 -13 -1 -13 -10 0 -5 8 -10 22 -10 30 0 13 1 13 10 0 5 -8 10 -22 10 -30z
m525 -36 c-12 -116 -13 -273 -1 -277 8 -3 7 -12 -2 -31 -6 -15 -12 -38 -12
-51 0 -13 -4 -27 -10 -30 -6 -4 -10 26 -10 84 0 49 -4 93 -10 96 -5 3 -10 16
-9 28 0 21 1 21 10 2 7 -16 8 -13 7 15 -2 50 28 230 39 230 3 0 2 -30 -2 -66z
m-392 -35 c-11 -11 -15 70 -5 85 4 6 8 -9 10 -33 2 -24 -1 -48 -5 -52z m1007
71 c0 -11 -4 -20 -9 -20 -5 0 -7 9 -4 20 3 11 7 20 9 20 2 0 4 -9 4 -20z
m-807 -4 c-7 -27 -11 -29 -21 -9 -10 18 -9 21 6 19 9 -2 16 -6 15 -10z m37
-16 c0 -5 -4 -10 -9 -10 -4 0 -7 -12 -5 -27 4 -28 4 -28 -5 -3 -14 38 -13 50
4 50 8 0 15 -4 15 -10z m-134 -65 c0 -30 9 -66 22 -92 12 -23 22 -52 22 -63 0
-35 53 -132 95 -174 22 -21 30 -31 18 -21 -19 15 -23 16 -23 3 0 -8 9 -27 20
-41 24 -30 26 -45 4 -26 -9 8 -25 32 -36 54 -10 22 -30 60 -44 85 -14 25 -37
79 -51 120 -24 73 -52 134 -53 117 0 -5 6 -23 13 -40 24 -57 74 -218 65 -209
-5 5 -23 49 -40 98 -17 49 -34 93 -39 99 -5 5 -9 19 -9 31 0 24 -19 44 -21 22
0 -7 -2 -47 -3 -88 -2 -41 -11 -111 -20 -155 -18 -88 -17 -113 14 -179 11 -25
20 -53 20 -63 0 -10 11 -38 25 -62 25 -43 34 -114 16 -126 -6 -3 -8 10 -5 33
3 29 -2 50 -22 87 -15 26 -30 61 -34 79 -6 23 -8 10 -9 -47 -1 -55 -5 -83 -16
-93 -8 -9 -15 -11 -15 -5 0 5 4 12 8 15 10 6 7 189 -5 276 l-9 65 -8 -40 c-5
-22 -13 -47 -18 -55 -7 -12 -8 -11 -4 5 14 63 16 99 5 137 l-12 43 -7 -35 c-6
-32 -36 -90 -47 -90 -2 0 3 12 11 28 21 38 36 112 36 172 0 35 4 50 12 48 6
-2 13 -11 16 -19 3 -11 1 -11 -8 1 -9 12 -10 1 -5 -45 8 -79 24 -140 35 -129
20 21 39 133 31 183 -6 37 -4 58 7 81 11 22 12 34 4 42 -8 8 -9 4 -5 -13 3
-13 3 -21 -1 -18 -3 3 -8 19 -9 35 -4 30 -3 30 37 24 l41 -5 1 -50z m698 -18
c-5 -90 -34 -259 -46 -272 -6 -6 -8 24 -4 80 8 145 14 187 23 194 5 3 13 14
16 25 6 14 3 17 -8 12 -8 -3 -15 -1 -15 3 0 5 7 12 16 15 8 3 12 11 8 17 -4 7
-3 9 4 5 7 -4 9 -33 6 -79z m297 56 c13 -16 12 -17 -3 -4 -10 7 -18 15 -18 17
0 8 8 3 21 -13z m-1183 -26 c2 -11 -3 -17 -15 -17 -15 0 -16 -2 -3 -10 10 -7
11 -10 2 -10 -7 0 -15 7 -18 15 -4 8 -11 12 -17 8 -6 -4 -8 0 -4 10 3 10 2 17
-3 17 -6 0 -10 4 -10 9 0 16 65 -4 68 -22z m438 6 c-3 -14 -10 -31 -16 -37 -8
-8 -9 -3 -4 19 12 50 28 66 20 18z m602 -3 c-1 -17 -7 -35 -15 -41 -15 -13
-16 -6 -7 40 8 40 23 40 22 1z m-47 -13 c-1 -4 -1 -29 -1 -57 0 -71 -16 -62
-19 11 -1 42 1 60 9 57 6 -2 11 -7 11 -11z m164 -23 c40 -7 40 -7 10 -14 -16
-3 -32 -3 -35 1 -3 3 -17 9 -32 13 -25 6 -28 3 -38 -36 -24 -92 -38 -132 -39
-111 -1 21 26 140 36 156 3 5 17 6 31 3 15 -2 45 -8 67 -12z m-1091 -9 c-4 -8
-10 -15 -15 -15 -4 0 -6 7 -3 15 4 8 10 15 15 15 4 0 6 -7 3 -15z m891 5 c3
-5 1 -10 -4 -10 -6 0 -11 5 -11 10 0 6 2 10 4 10 3 0 8 -4 11 -10z m5 -30 c0
-5 -4 -10 -9 -10 -5 0 -14 -44 -21 -97 -15 -120 -46 -283 -66 -343 -23 -70
-24 -73 -29 -68 -2 2 4 33 15 69 11 35 20 77 20 92 0 16 4 36 9 46 6 10 12 52
15 94 3 41 10 88 16 102 5 14 10 37 10 50 0 32 17 75 30 75 5 0 10 -4 10 -10z
m-1077 -13 c4 3 7 -4 7 -16 0 -12 -4 -20 -9 -17 -5 4 -12 0 -14 -6 -4 -8 -6
-7 -6 4 -1 9 -4 25 -8 35 -6 15 -4 16 9 6 8 -7 18 -10 21 -6z m1404 -104 c-3
-10 -5 -4 -5 12 0 17 2 24 5 18 2 -7 2 -21 0 -30z m-297 13 c0 -3 -4 -8 -10
-11 -5 -3 -10 -1 -10 4 0 6 5 11 10 11 6 0 10 -2 10 -4z m-13 -58 c-3 -7 -5
-2 -5 12 0 14 2 19 5 13 2 -7 2 -19 0 -25z m43 8 c0 -8 -5 -18 -12 -22 -7 -5
-9 -2 -5 9 3 9 1 18 -6 21 -7 2 -4 5 6 5 9 1 17 -5 17 -13z m227 -28 c-3 -8
-6 -5 -6 6 -1 11 2 17 5 13 3 -3 4 -12 1 -19z m-776 -177 c7 11 9 9 9 -8 0
-13 -5 -23 -11 -23 -6 0 -8 -9 -4 -20 3 -11 2 -27 -3 -36 -12 -21 -34 83 -25
117 6 22 7 22 16 -10 6 -26 11 -31 18 -20z m-83 -69 c11 -23 16 -40 11 -36 -9
5 -39 69 -39 82 0 10 7 -2 28 -46z m336 -111 c-5 -5 -25 -2 -44 7 -19 8 -29
17 -22 19 6 3 10 9 6 14 -3 5 2 9 11 9 8 0 21 12 28 27 12 27 12 27 21 -21 5
-27 5 -51 0 -55z m-294 44 c7 -9 8 -15 2 -15 -5 0 -12 7 -16 15 -3 8 -4 15 -2
15 2 0 9 -7 16 -15z m393 -55 c-3 -10 -12 -25 -21 -32 -13 -11 -12 -8 2 20 19
36 27 41 19 12z m531 1 c3 -4 -11 -5 -30 -3 -19 2 -36 7 -38 11 -3 4 11 5 30
3 19 -2 36 -7 38 -11z m-201 -48 c-4 -11 -8 -13 -11 -5 -2 7 -9 9 -14 6 -7 -4
-8 -2 -4 4 12 19 36 15 29 -5z m-513 -13 c0 -5 -6 -11 -12 -14 -7 -3 -4 -4 7
-3 13 2 19 9 17 20 -2 9 2 17 8 17 6 0 8 -4 5 -10 -3 -5 2 -10 12 -10 15 0 14
-4 -7 -20 -26 -20 -49 -26 -51 -12 0 4 -2 17 -5 29 -3 17 0 21 11 17 8 -4 15
-10 15 -14z m-155 -59 c-8 -25 -53 -81 -66 -81 -5 0 7 21 26 46 19 25 35 50
35 56 0 6 3 9 6 5 3 -3 3 -15 -1 -26z m125 20 c0 -5 -7 -12 -16 -15 -14 -5
-15 -4 -4 9 14 17 20 19 20 6z m-160 -11 c0 -5 -5 -10 -11 -10 -5 0 -7 5 -4
10 3 6 8 10 11 10 2 0 4 -4 4 -10z m670 -14 c0 -2 -7 -9 -15 -16 -13 -11 -14
-10 -9 4 5 14 24 23 24 12z m-933 -38 c-3 -7 -5 -2 -5 12 0 14 2 19 5 13 2 -7
2 -19 0 -25z"/>
<path d="M2630 4338 c-12 -22 -12 -22 6 -6 10 10 15 20 12 24 -4 3 -12 -5 -18
-18z"/>
<path d="M2353 3748 c-12 -15 -24 -48 -18 -48 2 0 10 14 19 30 15 32 15 38 -1
18z"/>
<path d="M2160 3373 c0 -24 16 -48 23 -36 8 13 -3 53 -14 53 -5 0 -9 -8 -9
-17z"/>
<path d="M2151 3314 c-1 -15 -9 -24 -26 -28 -14 -4 -25 -11 -25 -16 0 -6 11
-10 25 -10 14 0 25 -6 25 -12 0 -7 5 -5 11 5 5 9 7 22 4 27 -3 6 -1 10 4 10 6
0 11 7 11 16 0 8 -4 13 -9 10 -5 -4 -12 0 -14 6 -3 7 -6 3 -6 -8z"/>
<path d="M2231 3258 c-17 -29 -39 -64 -48 -78 -11 -16 -3 -11 20 12 20 20 37
41 37 45 0 4 7 21 15 37 27 51 8 39 -24 -16z"/>
<path d="M1971 3256 c10 -10 116 -46 134 -45 11 0 -11 11 -49 25 -66 22 -95
29 -85 20z"/>
<path d="M1926 3236 c3 -8 11 -13 17 -10 7 2 28 -11 48 -30 20 -19 48 -37 62
-40 15 -3 36 -8 48 -11 19 -6 20 -8 3 -26 -9 -10 -12 -19 -7 -19 16 0 30 21
41 61 l9 35 -51 -4 c-43 -3 -61 1 -110 27 -67 36 -67 36 -60 17z"/>
<path d="M2614 3503 c10 -10 46 -11 40 -1 -3 4 -15 8 -26 8 -12 0 -18 -3 -14
-7z"/>
<path d="M2591 3419 c-1 -9 8 -26 19 -39 11 -13 20 -18 20 -12 0 6 -5 14 -11
17 -6 4 -14 17 -19 29 -6 14 -9 16 -9 5z"/>
<path d="M2686 3316 c-20 -42 -21 -86 -2 -86 19 0 32 19 41 59 6 28 5 33 -8
28 -11 -4 -13 0 -10 14 8 30 -3 22 -21 -15z m24 -41 c0 -8 -4 -15 -10 -15 -5
0 -7 7 -4 15 4 8 8 15 10 15 2 0 4 -7 4 -15z"/>
<path d="M2500 3282 l5 -47 3 39 c2 21 0 42 -5 47 -4 4 -6 -13 -3 -39z"/>
<path d="M2360 3317 c0 -1 -4 -18 -10 -37 -9 -32 -8 -33 5 -16 14 19 21 56 10
56 -3 0 -5 -1 -5 -3z"/>
<path d="M2423 3255 c0 -38 2 -53 4 -32 2 20 2 52 0 70 -2 17 -4 1 -4 -38z"/>
<path d="M2640 3274 c0 -10 5 -26 10 -34 8 -11 9 -8 6 14 -6 34 -16 47 -16 20z"/>
<path d="M2823 3237 c-17 -7 -35 -16 -40 -21 -9 -10 27 0 72 19 37 17 11 18
-32 2z"/>
<path d="M2656 3205 c4 -8 8 -15 10 -15 2 0 4 7 4 15 0 8 -4 15 -10 15 -5 0
-7 -7 -4 -15z"/>
<path d="M2683 3178 c-2 -5 14 -8 36 -8 22 0 42 3 44 8 3 4 -13 7 -35 7 -22 0
-42 -3 -45 -7z"/>
<path d="M2610 3168 c0 -9 5 -20 11 -23 17 -11 20 0 4 21 -13 17 -14 17 -15 2z"/>
<path d="M2655 3120 c-3 -5 -1 -10 4 -10 6 0 11 5 11 10 0 6 -2 10 -4 10 -3 0
-8 -4 -11 -10z"/>
<path d="M2507 2763 c-4 -3 -7 -11 -7 -17 0 -6 5 -5 12 2 6 6 9 14 7 17 -3 3
-9 2 -12 -2z"/>
<path d="M2396 2725 c-9 -14 -13 -25 -9 -25 10 0 36 40 30 46 -2 3 -12 -7 -21
-21z"/>
<path d="M2418 2673 c-7 -25 6 -53 14 -31 3 7 2 22 -2 32 -6 19 -7 19 -12 -1z"/>
<path d="M2285 2610 c-3 -6 1 -7 9 -4 18 7 21 14 7 14 -6 0 -13 -4 -16 -10z"/>
<path d="M2404 2593 c-4 -16 -9 -39 -10 -52 -1 -23 0 -23 12 -5 7 10 18 25 24
32 8 8 8 12 0 12 -7 0 -9 8 -5 20 3 11 2 20 -3 20 -6 0 -13 -12 -18 -27z"/>
<path d="M2262 2495 c-9 -19 -9 -25 1 -25 15 0 38 35 30 44 -12 11 -20 6 -31
-19z"/>
<path d="M2413 2488 c-18 -11 -33 -27 -33 -36 1 -14 4 -13 19 6 11 12 24 22
29 22 5 0 12 7 16 15 3 8 4 15 3 14 -1 0 -17 -10 -34 -21z"/>
<path d="M2405 2424 c-21 -19 -26 -29 -16 -32 16 -5 55 32 49 48 -2 7 -15 1
-33 -16z"/>
<path d="M2085 2850 c3 -5 8 -10 11 -10 2 0 4 5 4 10 0 6 -5 10 -11 10 -5 0
-7 -4 -4 -10z"/>
<path d="M2092 2790 c0 -14 2 -19 5 -12 2 6 2 18 0 25 -3 6 -5 1 -5 -13z"/>
<path d="M2882 2485 c0 -16 2 -22 5 -12 2 9 2 23 0 30 -3 6 -5 -1 -5 -18z"/>
<path d="M1850 2829 c0 -5 5 -7 10 -4 6 3 10 8 10 11 0 2 -4 4 -10 4 -5 0 -10
-5 -10 -11z"/>
<path d="M1870 2806 c0 -8 5 -18 10 -21 6 -3 10 1 10 9 0 8 -4 18 -10 21 -5 3
-10 -1 -10 -9z"/>
<path d="M1675 2820 c3 -5 8 -10 11 -10 2 0 4 5 4 10 0 6 -5 10 -11 10 -5 0
-7 -4 -4 -10z"/>
</g>
</svg>
